<?xml version="1.0" encoding="UTF-8"?>
<svg width="76px" height="100px" viewBox="0 0 76 100" version="1.1" xmlns="http://www.w3.org/2000/svg" xmlns:xlink="http://www.w3.org/1999/xlink">
    <!-- Generator: Sketch 58 (84663) - https://sketch.com -->
    <title>accident</title>
    <desc>Created with Sketch.</desc>
    <g id="BDO-Home" stroke="none" stroke-width="1" fill="none" fill-rule="evenodd">
        <g transform="translate(-1097.000000, -1983.000000)" fill="#C2CCC7" fill-rule="nonzero" id="Group">
            <g transform="translate(896.000000, 1962.000000)">
                <g id="accident" transform="translate(201.000000, 21.000000)">
                    <path d="M55.5384615,53.125 L55.5191692,53.125 C55.5131282,53.125 55.5068923,53.125 55.5008513,53.125 L49.6923077,53.125 C48.3619179,53.125 47.2363385,52.2298828 46.8838154,51.0087891 C51.0470564,48.9599609 54.4806974,45.4464844 56.5026872,41.1582031 C60.8859385,40.6755859 64.3076923,36.9416016 64.3076923,32.421875 C64.3076923,28.6023437 61.8641949,25.3439453 58.4615385,24.1347656 L58.4615385,20.703125 C58.4615385,9.28730469 49.2824923,0 38,0 L8.76923077,0 C7.15491282,0 5.84615385,1.31171875 5.84615385,2.9296875 C5.84615385,11.171875 10.6316205,18.3037109 17.5384615,21.6324219 L17.5384615,24.1347656 C14.1358051,25.3439453 11.6923077,28.6021484 11.6923077,32.421875 C11.6923077,36.9416016 15.1138667,40.6755859 19.4973128,41.1582031 C21.5193026,45.4464844 24.9531385,48.9601562 29.1161846,51.0087891 C28.7636615,52.2298828 27.6380821,53.125 26.3076923,53.125 L20.4615385,53.125 C9.17904615,53.125 0,62.3248047 0,73.6328125 L0,85.3515625 C0,85.3554688 0,85.359375 0,85.3634766 C0,85.3816406 0.00116923077,85.3998047 0.00155897436,85.4179688 C0.0376102564,93.4646484 6.57867692,100 14.6153846,100 C15.5342051,100 51.6476513,100 52.6153846,100 L61.3846154,100 C69.4435385,100 76,93.4287109 76,85.3515625 L76,73.6328125 C76,62.3304688 66.8236821,53.125 55.5384615,53.125 Z M11.9781846,5.859375 L38,5.859375 C45.0717026,5.859375 50.9866462,10.9869141 52.3295077,17.7734375 L26.3076923,17.7734375 C19.2359897,17.7734375 13.3210462,12.6458984 11.9781846,5.859375 Z M5.84615385,73.6328125 C5.84615385,65.5556641 12.4026154,58.984375 20.4615385,58.984375 L26.3076923,58.984375 C31.1430462,58.984375 35.0769231,55.0416016 35.0769231,50.1953125 L35.0769231,49.1189453 C35.0769231,47.8792969 34.2984103,46.7738281 33.1328821,46.3583984 C29.0585026,44.9068359 25.7271692,41.51875 24.2213949,37.2953125 C23.8057333,36.1294922 22.7039282,35.3515625 21.4688308,35.3515625 L20.4615385,35.3515625 C18.8497538,35.3515625 17.5384615,34.0373047 17.5384615,32.421875 C17.5384615,30.8064453 18.8497538,29.4921875 20.4615385,29.4921875 C22.0758564,29.4921875 23.3846154,28.1804687 23.3846154,26.5625 L23.3846154,23.4207031 C24.3396821,23.5595703 25.3152103,23.6328125 26.3076923,23.6328125 L52.6153846,23.6328125 L52.6153846,26.5625 C52.6153846,28.1804687 53.9241436,29.4921875 55.5384615,29.4921875 C57.1502462,29.4921875 58.4615385,30.8064453 58.4615385,32.421875 C58.4615385,34.0373047 57.1502462,35.3515625 55.5384615,35.3515625 L54.5309744,35.3515625 C53.2956821,35.3515625 52.1938769,36.1296875 51.7784103,37.2955078 C50.2726359,41.51875 46.9414974,44.9066406 42.8671179,46.3583984 C41.7017846,46.7736328 40.9230769,47.8791016 40.9230769,49.1189453 L40.9230769,50.1953125 C40.9230769,53.6625 42.9370769,56.6664063 45.8539179,58.0958984 L23.3846154,70.6068359 L23.3846154,67.7734375 C23.3846154,66.1554688 22.0758564,64.84375 20.4615385,64.84375 C18.8472205,64.84375 17.5384615,66.1554688 17.5384615,67.7734375 L17.5384615,73.8621094 L5.84615385,80.3724609 L5.84615385,73.6328125 Z M14.6153846,94.140625 C10.3385333,94.140625 6.76906667,91.0552734 6.00107692,86.9890625 C8.06457436,85.8400391 54.0079385,60.2582031 56.2626051,59.0027344 C57.6384,59.0703125 58.9631385,59.3330078 60.2140205,59.7576172 L30.8094256,94.140625 C29.0479795,94.140625 16.3103795,94.140625 14.6153846,94.140625 Z M52.6153846,94.140625 L38.5092,94.140625 L48.5312615,82.421875 L52.6153846,82.421875 C55.8389538,82.421875 58.4615385,85.0503906 58.4615385,88.28125 C58.4615385,91.5121094 55.8389538,94.140625 52.6153846,94.140625 Z M70.1538462,85.3515625 C70.1538462,89.7142578 66.9653538,93.3431641 62.8015282,94.0242188 C63.7585436,92.3257813 64.3076923,90.3671875 64.3076923,88.28125 C64.3076923,82.1214844 59.5403487,77.0601563 53.510041,76.6001953 L65.335641,62.7726562 C68.2926256,65.4550781 70.1538462,69.3298828 70.1538462,73.6328125 L70.1538462,85.3515625 Z" id="Shape"></path>
                </g>
            </g>
        </g>
    </g>
</svg>