<?xml version="1.0" encoding="UTF-8"?>
<svg width="83px" height="110px" viewBox="0 0 83 110" version="1.1" xmlns="http://www.w3.org/2000/svg" xmlns:xlink="http://www.w3.org/1999/xlink">
    <!-- Generator: Sketch 57.1 (83088) - https://sketch.com -->
    <title>transfer</title>
    <desc>Created with Sketch.</desc>
    <g id="Design" stroke="none" stroke-width="1" fill="none" fill-rule="evenodd">
        <g id="BDO-Home" transform="translate(-1177.000000, -3738.000000)" fill="#C2CCC7" fill-rule="nonzero">
            <g id="Group-Copy-19" transform="translate(958.000000, 3719.000000)">
                <g id="transfer" transform="translate(219.000000, 19.000000)">
                    <path d="M104.296296,98.9213775 L104.296296,97.0916179 C104.296296,94.0599731 101.838662,91.6023392 98.8070175,91.6023392 L98.8070175,87.94282 C98.8030927,86.641263 98.1057646,85.4404639 96.977258,84.791974 L96.977258,73.3047433 L106.590815,73.3047433 C107.983302,73.2997302 109.213111,72.3958529 109.633615,71.0683651 C110.054118,69.7408774 109.56902,68.2937755 108.433383,67.4879376 L73.9222872,43.0185627 C72.3956465,41.920762 70.3384094,41.920762 68.8117687,43.0185627 L65.8073034,45.1484029 C65.5964579,44.1190043 64.9532944,43.2299058 64.0415854,42.7075036 L64.0415854,31.2202729 L73.6551423,31.2202729 C75.0476298,31.2152597 76.2774386,30.3113825 76.6979421,28.9838946 C77.1184454,27.656407 76.6333476,26.209305 75.4977102,25.4034672 L40.9866147,0.934092268 C39.459974,-0.16370837 37.4027369,-0.16370837 35.8760962,0.934092268 L1.35219233,25.4034672 C0.216555066,26.209305 -0.268542854,27.656407 0.151960491,28.9838946 C0.572463817,30.3113825 1.80227272,31.2152597 3.19476023,31.2202729 L12.8083171,31.2202729 L12.8083171,42.7075036 C11.6798106,43.3559934 10.9824823,44.5567925 10.9785575,45.8583496 L10.9785575,49.5178687 C7.94691256,49.5178687 5.48927875,51.9755026 5.48927875,55.0071475 L5.48927875,56.8369071 C2.45763381,56.8369071 0,59.294541 0,62.3261858 L0,64.1559454 C0,66.177042 1.63842254,67.8154646 3.65951917,67.8154646 L33.9548486,67.8154646 C32.9989414,68.7048664 32.6863431,70.0894962 33.1674205,71.3033163 C33.6484978,72.5171363 34.8247734,73.3116756 36.1304327,73.3047433 L45.7439896,73.3047433 L45.7439896,84.791974 C44.615483,85.4404639 43.9181549,86.641263 43.91423,87.94282 L43.91423,91.6023392 C40.8825852,91.6023392 38.4249513,94.0599731 38.4249513,97.0916179 L38.4249513,98.9213775 C35.3933064,98.9213775 32.9356725,101.379011 32.9356725,104.410656 L32.9356725,106.240416 C32.9356725,108.261512 34.5740951,109.899935 36.5951917,109.899935 L106.126056,109.899935 C108.147153,109.899935 109.785575,108.261512 109.785575,106.240416 L109.785575,104.410656 C109.785575,101.379011 107.327941,98.9213775 104.296296,98.9213775 L104.296296,98.9213775 Z M78.6796621,91.6023392 L78.6796621,87.94282 C78.6757373,86.641263 77.9784091,85.4404639 76.8499025,84.791974 L76.8499025,73.3047433 L85.9987005,73.3047433 L85.9987005,84.791974 C84.8701939,85.4404639 84.1728657,86.641263 84.1689409,87.94282 L84.1689409,91.6023392 L78.6796621,91.6023392 Z M58.5523067,91.6023392 L58.5523067,87.94282 C58.5483819,86.641263 57.8510537,85.4404639 56.7225471,84.791974 L56.7225471,73.3047433 L65.871345,73.3047433 L65.871345,84.791974 C64.7428384,85.4404639 64.0455103,86.641263 64.0415854,87.94282 L64.0415854,91.6023392 L58.5523067,91.6023392 Z M73.1903834,84.2833008 L69.5308642,84.2833008 L69.5308642,73.3047433 L73.1903834,73.3047433 L73.1903834,84.2833008 Z M67.7011046,87.94282 L75.0201429,87.94282 L75.0201429,91.6023392 L67.7011046,91.6023392 L67.7011046,87.94282 Z M87.82846,87.94282 L95.1474984,87.94282 L95.1474984,91.6023392 L87.82846,91.6023392 L87.82846,87.94282 Z M93.3177388,84.2833008 L89.6582196,84.2833008 L89.6582196,73.3047433 L93.3177388,73.3047433 L93.3177388,84.2833008 Z M59.6391839,49.5178687 L54.8927875,49.5178687 L54.8927875,45.8583496 L62.2118259,45.8583496 L62.2118259,47.6881092 L59.6391839,49.5178687 Z M45.7439896,49.5178687 L45.7439896,45.8583496 C45.7400648,44.5567925 45.0427366,43.3559934 43.91423,42.7075036 L43.91423,31.2202729 L53.0630279,31.2202729 L53.0630279,42.7075036 C51.9345213,43.3559934 51.2371932,44.5567925 51.2332684,45.8583496 L51.2332684,49.5178687 L45.7439896,49.5178687 Z M25.6166342,49.5178687 L25.6166342,45.8583496 C25.6127093,44.5567925 24.9153812,43.3559934 23.7868746,42.7075036 L23.7868746,31.2202729 L32.9356725,31.2202729 L32.9356725,42.7075036 C31.8071659,43.3559934 31.1098378,44.5567925 31.1059129,45.8583496 L31.1059129,49.5178687 L25.6166342,49.5178687 Z M40.2547109,42.1988304 L36.5951917,42.1988304 L36.5951917,31.2202729 L40.2547109,31.2202729 L40.2547109,42.1988304 Z M34.7654321,45.8583496 L42.0844704,45.8583496 L42.0844704,49.5178687 L34.7654321,49.5178687 L34.7654321,45.8583496 Z M60.3820663,42.1988304 L56.7225471,42.1988304 L56.7225471,31.2202729 L60.3820663,31.2202729 L60.3820663,42.1988304 Z M37.9821494,3.92208967 C38.2434936,3.72415722 38.6045791,3.72415722 38.8659233,3.92208967 L72.2132917,27.5607537 L4.63661079,27.5607537 L37.9821494,3.92208967 Z M20.1273554,31.2202729 L20.1273554,42.1988304 L16.4678363,42.1988304 L16.4678363,31.2202729 L20.1273554,31.2202729 Z M14.6380767,45.8583496 L21.957115,45.8583496 L21.957115,49.5178687 L14.6380767,49.5178687 L14.6380767,45.8583496 Z M9.14879792,55.0071475 C9.14879792,53.9965993 9.96800919,53.1773879 10.9785575,53.1773879 L54.4756023,53.1773879 L49.3138506,56.8369071 L9.14879792,56.8369071 L9.14879792,55.0071475 Z M3.65951917,62.3261858 C3.65951917,61.3156376 4.47873044,60.4964263 5.48927875,60.4964263 L44.1520988,60.4964263 L38.9885172,64.1559454 L3.65951917,64.1559454 L3.65951917,62.3261858 Z M70.917822,46.0065601 C71.1791662,45.8086277 71.5402516,45.8086277 71.8015958,46.0065601 L105.148964,69.6452242 L37.5722833,69.6452242 L70.917822,46.0065601 Z M53.0630279,73.3047433 L53.0630279,84.2833008 L49.4035088,84.2833008 L49.4035088,73.3047433 L53.0630279,73.3047433 Z M47.5737492,87.94282 L54.8927875,87.94282 L54.8927875,91.6023392 L47.5737492,91.6023392 L47.5737492,87.94282 Z M42.0844704,97.0916179 C42.0844704,96.0810697 42.9036818,95.2618583 43.91423,95.2618583 L98.8070175,95.2618583 C99.8175658,95.2618583 100.636777,96.0810697 100.636777,97.0916179 L100.636777,98.9213775 L42.0844704,98.9213775 L42.0844704,97.0916179 Z M36.5951917,106.240416 L36.5951917,104.410656 C36.5951917,103.400108 37.414403,102.580897 38.4249513,102.580897 L104.296296,102.580897 C105.306845,102.580897 106.126056,103.400108 106.126056,104.410656 L106.126056,106.240416 L36.5951917,106.240416 Z" id="Shape"></path>
                    <path d="M7.31903834,73.3047433 C6.30849002,73.3047433 5.48927875,74.1239547 5.48927875,75.1345029 L5.48927875,86.1130604 C5.49533046,92.1738419 10.4070548,97.0855662 16.4678363,97.0916179 L24.8591137,97.0916179 L22.4932346,99.4574971 C22.0175765,99.916903 21.8268131,100.597214 21.9942643,101.236952 C22.1617156,101.87669 22.6613221,102.376296 23.3010601,102.543747 C23.9407978,102.711199 24.6211086,102.520435 25.0805146,102.044777 L30.5697934,96.5554984 C30.7405447,96.3850868 30.875538,96.1822858 30.9668512,95.9589968 C31.1518708,95.5113838 31.1518708,95.0086734 30.9668512,94.5610604 C30.875538,94.3377714 30.7405447,94.1349704 30.5697934,93.9645588 L25.0805146,88.4752801 C24.3625556,87.781852 23.2213237,87.791769 22.5155236,88.4975691 C21.8097235,89.2033692 21.7998066,90.3446011 22.4932346,91.0625601 L24.8591137,93.4320988 L16.4678363,93.4320988 C12.425643,93.4320988 9.14879792,90.1552537 9.14879792,86.1130604 L9.14879792,75.1345029 C9.14879792,74.1239547 8.32958665,73.3047433 7.31903834,73.3047433 L7.31903834,73.3047433 Z" id="Path"></path>
                    <path d="M89.1221001,28.0968733 C88.404141,27.4034453 87.2629092,27.4133622 86.557109,28.1191623 C85.8513089,28.8249624 85.841392,29.9661943 86.53482,30.6841533 L92.0240988,36.1734321 C92.3673772,36.5175795 92.8334847,36.7109928 93.3195686,36.7109928 C93.8056524,36.7109928 94.2717599,36.5175795 94.6150383,36.1734321 L100.104317,30.6841533 C100.797745,29.9661943 100.787828,28.8249624 100.082028,28.1191623 C99.3762279,27.4133622 98.2349961,27.4034453 97.517037,28.0968733 L95.1474984,30.4627524 L95.1474984,22.071475 C95.1414466,16.0106936 90.2297223,11.0989692 84.1689409,11.0929175 L73.1903834,11.0929175 C72.1798351,11.0929175 71.3606238,11.9121287 71.3606238,12.9226771 C71.3606238,13.9332254 72.1798351,14.7524366 73.1903834,14.7524366 L84.1689409,14.7524366 C88.2111341,14.7524366 91.4879792,18.0292817 91.4879792,22.071475 L91.4879792,30.4627524 L89.1221001,28.0968733 Z" id="Path"></path>
                </g>
            </g>
        </g>
    </g>
</svg>