<svg xmlns="http://www.w3.org/2000/svg" viewBox="0 0 44.97 44.78"><defs><style>.cls-1{fill:#fff;}</style></defs><title>bdo-icon</title><g id="Layer_2" data-name="Layer 2"><g id="Layer_1-2" data-name="Layer 1"><path class="cls-1" d="M25.87.06a25.68,25.68,0,0,1-5,11A12.5,12.5,0,0,1,22.48,11,11.31,11.31,0,1,1,11.17,22.29a11.52,11.52,0,0,1,.68-3.86A25.85,25.85,0,0,1,.4,21.1H0c0,.4,0,.8,0,1.2A22.49,22.49,0,1,0,25.87.06Z"/><path class="cls-1" d="M16,4.3,21.25,0a19.44,19.44,0,0,0-5.64,1Z"/><path class="cls-1" d="M7.35,11.41,10.26,9,9.64,3.91A21.32,21.32,0,0,0,6.74,6.3Z"/><path class="cls-1" d="M14.31,1.41A22.4,22.4,0,0,0,11.11,3l.59,4.89,3.08-2.53Z"/><path class="cls-1" d="M5.19,8a18.53,18.53,0,0,0-4.13,8.61l4.7-3.86Z"/><path class="cls-1" d="M17.33,10.38l-5.71-.73L8.79,12l6,.78A21.79,21.79,0,0,0,17.33,10.38Z"/><path class="cls-1" d="M20.12,6.5l-4-.52-3,2.49,5.31.69A20.05,20.05,0,0,0,20.12,6.5Z"/><path class="cls-1" d="M20.71,5.34a17.22,17.22,0,0,0,1.36-4.27L17.39,4.91Z"/><path class="cls-1" d="M7,13.44,1.87,17.65a21,21,0,0,0,11-3.46Z"/></g></g></svg>