<svg xmlns="http://www.w3.org/2000/svg" viewBox="0 0 68.78 87.81"><defs><style>.cls-1{fill:#f17f21;}.cls-2{fill:#0d9a49;}</style></defs><title>bdo-isologo-color</title><g id="Layer_2" data-name="Layer 2"><g id="Layer_1-2" data-name="Layer 1"><path class="cls-1" d="M47.29,41.36a25.68,25.68,0,0,1-5,11,12.5,12.5,0,0,1,1.63-.12A11.31,11.31,0,1,1,32.59,63.59a11.52,11.52,0,0,1,.68-3.86A25.85,25.85,0,0,1,21.82,62.4h-.36c0,.4,0,.8,0,1.2A22.49,22.49,0,1,0,47.29,41.36Z"/><path class="cls-2" d="M68.78,56.23V38.72H51.26A26,26,0,0,1,68.78,56.23Z"/><path class="cls-2" d="M19.29,71.79v16h15.3A26,26,0,0,1,19.29,71.79Z"/><path class="cls-2" d="M53.22,87.81H68.78V71A26,26,0,0,1,53.22,87.81Z"/><path class="cls-2" d="M19.29,47.26v8.13a26.08,26.08,0,0,1,4.46-8.13Z"/><path class="cls-2" d="M21.82,14a22.38,22.38,0,0,0-9.71,2.2V0H0V58.27H16.19v-12h0a11.3,11.3,0,0,1-5.67-9.8,11.19,11.19,0,0,1,1.6-5.79,11.31,11.31,0,0,1,20.34,9.65A25.88,25.88,0,0,1,43.9,37.65h.37c0-.4,0-.8,0-1.21A22.47,22.47,0,0,0,21.82,14Z"/><path class="cls-2" d="M37.43,45.6l5.24-4.3a19.44,19.44,0,0,0-5.64,1Z"/><path class="cls-2" d="M28.77,52.71l2.91-2.38-.62-5.12a22,22,0,0,0-2.9,2.39Z"/><path class="cls-2" d="M35.73,42.71a22.4,22.4,0,0,0-3.2,1.55l.59,4.89,3.08-2.53Z"/><path class="cls-2" d="M26.61,49.27a18.53,18.53,0,0,0-4.13,8.61L27.18,54Z"/><path class="cls-2" d="M38.75,51.68,33,51l-2.83,2.32,6,.78A21.79,21.79,0,0,0,38.75,51.68Z"/><path class="cls-2" d="M41.54,47.8l-4-.52-3,2.49,5.31.69A20.05,20.05,0,0,0,41.54,47.8Z"/><path class="cls-2" d="M42.13,46.64a16.82,16.82,0,0,0,1.36-4.27l-4.68,3.84Z"/><path class="cls-2" d="M28.42,54.74,23.29,59a21,21,0,0,0,11-3.46Z"/></g></g></svg>