<svg xmlns="http://www.w3.org/2000/svg" viewBox="0 0 259.99 89.38"><defs><style>.cls-1{fill:#f17f21;}.cls-2{fill:#0d9a49;}</style></defs><title>bdo-logo-color</title><g id="Layer_2" data-name="Layer 2"><g id="Layer_1-2" data-name="Layer 1"><path class="cls-1" d="M233.4,46.6h-.19a5,5,0,0,1-5.12-4.93h15A9.76,9.76,0,0,0,233.4,32a10,10,0,0,0-10.07,9.71,9.81,9.81,0,0,0,9.88,9.87h.19a9.68,9.68,0,0,0,8.16-4.94l-4-2.49a4.81,4.81,0,0,1-4.15,2.49m-.19-9.88h.19a6.18,6.18,0,0,1,3.41,1.34H230a3.84,3.84,0,0,1,3.23-1.34"/><path class="cls-1" d="M217.06,29.47V33.3A10.26,10.26,0,0,0,212.29,32c-5.67,0-9.69,4.34-9.69,10.07a9.6,9.6,0,0,0,9.69,9.51A9.76,9.76,0,0,0,222.17,42V29.47Zm-4.77,17.32a5,5,0,1,1,5.13-4.94,5.08,5.08,0,0,1-5.13,4.94"/><path class="cls-1" d="M182,32h-.13a9.8,9.8,0,0,0-9.89,9.89,9.68,9.68,0,0,0,9.89,9.69H182a9.68,9.68,0,0,0,9.79-9.69A9.82,9.82,0,0,0,182,32m0,14.83h-.13a5,5,0,0,1-4.95-5.14,4.92,4.92,0,0,1,4.95-4.93H182a5,5,0,0,1,0,10.07"/><path class="cls-1" d="M167.59,43.55a5.12,5.12,0,0,1-9.88-1.7,5.26,5.26,0,0,1,10.11-2.09l3.78-2.67a10,10,0,0,0-8.72-5.31,9.88,9.88,0,1,0,0,19.76c3.6,0,6.45-1.71,8.72-4.94Z"/><path class="cls-1" d="M126.56,50.75a17.18,17.18,0,0,1-4,.79,9.84,9.84,0,0,1-10.1-9.69,10,10,0,0,1,10.1-10.07,10.11,10.11,0,0,1,9.88,10.07v9.69h-4.94V41.47a4.91,4.91,0,0,0-4.94-4.94,5,5,0,0,0-5.17,5.12,5.12,5.12,0,0,0,5.17,5,5.61,5.61,0,0,0,4-1.71Z"/><path class="cls-1" d="M146.88,51.54V40.69a3.9,3.9,0,0,0-4-4,3.63,3.63,0,0,0-3.77,4V51.54h-4.76V40.69a8.64,8.64,0,1,1,17.28,0V51.54Z"/><path class="cls-1" d="M106.85,36.53a6.6,6.6,0,0,0,1.52-4.2c0-4.75-4.2-8-8.59-8h-.37C91.7,24.48,88,27.9,88,34.6V51.54h15a8.14,8.14,0,0,0,8.18-8.17c0-3.84-1.9-5.92-4.34-6.84M99.41,29.1h.19a3.17,3.17,0,0,1,3.23,3A2.93,2.93,0,0,1,100.94,35h-7.8c0-4.34,2.4-5.87,6.27-5.91m3,17.08H93.32v-6h9a2.94,2.94,0,0,1,3.23,3,2.77,2.77,0,0,1-3.05,3"/><rect class="cls-1" x="153.04" y="68.88" width="4.93" height="4.35"/><path class="cls-1" d="M250.3,84.45h-.18a4.89,4.89,0,0,1-4.94-5H260a9.78,9.78,0,1,0-9.87,9.88h.18a9.83,9.83,0,0,0,8.36-4.93L254.46,82a4.31,4.31,0,0,1-4.16,2.45m-.18-9.89h.18a5.55,5.55,0,0,1,3.42,1.34h-6.83a4.19,4.19,0,0,1,3.23-1.34"/><path class="cls-1" d="M213.82,89.38V78.58a4,4,0,0,0-4-4c-2.27,0-3.79,1.53-3.79,4v10.8h-4.75V78.58a8.58,8.58,0,0,1,8.54-8.78,8.7,8.7,0,0,1,8.95,8.78v10.8Z"/><path class="cls-1" d="M222.37,77.06h-2.31l1.34-4.39h1V69.61h4.38v3.06H233l1.52,4.39h-7.76v3a4.46,4.46,0,0,0,4.53,4.76,4.32,4.32,0,0,0,4.2-3.65l4.16,2.5c-1.53,3-4.53,5.67-8.17,5.67-5.5,0-9.1-3.79-9.1-9.28Z"/><path class="cls-1" d="M190.41,84.45a5,5,0,0,1-5.12-5h14.82a9.6,9.6,0,0,0-9.7-9.69,9.79,9.79,0,1,0,8.41,14.64l-4-2.45a4.76,4.76,0,0,1-4.39,2.45m0-9.89a5.32,5.32,0,0,1,3.47,1.34H187a4.45,4.45,0,0,1,3.41-1.34"/><path class="cls-1" d="M128.19,81.4a5.07,5.07,0,0,1-4.76,3.23,5,5,0,0,1-5.12-4.94,5.18,5.18,0,0,1,5.12-5.31,5.13,5.13,0,0,1,4.94,3.22L132.21,75a10.36,10.36,0,0,0-8.78-5.36,9.88,9.88,0,0,0-9.87,10.08,9.75,9.75,0,0,0,9.87,9.69c3.6,0,6.47-1.7,8.78-4.93Z"/><path class="cls-1" d="M174.11,67.54v3.61a9.44,9.44,0,0,0-4.57-1.35h-.09c-5.87,0-9.79,4.44-9.79,10.07a9.59,9.59,0,0,0,9.79,9.51h.09a9.57,9.57,0,0,0,9.7-9.51V67.54Zm-4.57,17.09h-.09a5,5,0,1,1,0-10.07h.09a5.1,5.1,0,0,1,4.94,5.13,5,5,0,0,1-4.94,4.94"/><path class="cls-1" d="M148,81.4a5.06,5.06,0,0,1-4.75,3.23,5,5,0,0,1-5.13-4.94,5.19,5.19,0,0,1,5.13-5.31,5.12,5.12,0,0,1,4.94,3.22L151.93,75a10.29,10.29,0,0,0-8.73-5.36,9.9,9.9,0,0,0-9.89,10.08,9.77,9.77,0,0,0,9.89,9.69c3.6,0,6.42-1.7,8.73-4.93Z"/><rect class="cls-1" x="153.04" y="74.75" width="4.93" height="14.63"/><path class="cls-1" d="M98.92,62.23a13.58,13.58,0,1,0,13.53,13.66A13.56,13.56,0,0,0,98.92,62.23m0,21.66a8.08,8.08,0,1,1,8.17-8,8.09,8.09,0,0,1-8.17,8"/><path class="cls-1" d="M47.29,41.36a25.68,25.68,0,0,1-5,11,12.5,12.5,0,0,1,1.63-.12A11.31,11.31,0,1,1,32.59,63.59a11.52,11.52,0,0,1,.68-3.86A25.85,25.85,0,0,1,21.82,62.4h-.36c0,.4,0,.8,0,1.2A22.49,22.49,0,1,0,47.29,41.36Z"/><path class="cls-2" d="M68.78,56.23V38.72H51.26A26,26,0,0,1,68.78,56.23Z"/><path class="cls-2" d="M19.29,71.79v16h15.3A26,26,0,0,1,19.29,71.79Z"/><path class="cls-2" d="M53.22,87.81H68.78V71A26,26,0,0,1,53.22,87.81Z"/><path class="cls-2" d="M19.29,47.26v8.13a26.08,26.08,0,0,1,4.46-8.13Z"/><path class="cls-2" d="M21.82,14a22.38,22.38,0,0,0-9.71,2.2V0H0V58.27H16.19v-12h0a11.3,11.3,0,0,1-5.67-9.8,11.19,11.19,0,0,1,1.6-5.79,11.31,11.31,0,0,1,20.34,9.65A25.88,25.88,0,0,1,43.9,37.65h.37c0-.4,0-.8,0-1.21A22.47,22.47,0,0,0,21.82,14Z"/><path class="cls-2" d="M37.43,45.6l5.24-4.3a19.44,19.44,0,0,0-5.64,1Z"/><path class="cls-2" d="M28.77,52.71l2.91-2.38-.62-5.12a22,22,0,0,0-2.9,2.39Z"/><path class="cls-2" d="M35.73,42.71a22.4,22.4,0,0,0-3.2,1.55l.59,4.89,3.08-2.53Z"/><path class="cls-2" d="M26.61,49.27a18.53,18.53,0,0,0-4.13,8.61L27.18,54Z"/><path class="cls-2" d="M38.75,51.68,33,51l-2.83,2.32,6,.78A21.79,21.79,0,0,0,38.75,51.68Z"/><path class="cls-2" d="M41.54,47.8l-4-.52-3,2.49,5.31.69A20.05,20.05,0,0,0,41.54,47.8Z"/><path class="cls-2" d="M42.13,46.64a16.82,16.82,0,0,0,1.36-4.27l-4.68,3.84Z"/><path class="cls-2" d="M28.42,54.74,23.29,59a21,21,0,0,0,11-3.46Z"/></g></g></svg>