<?xml version="1.0" encoding="UTF-8"?>
<svg width="81px" height="100px" viewBox="0 0 81 100" version="1.1" xmlns="http://www.w3.org/2000/svg" xmlns:xlink="http://www.w3.org/1999/xlink">
    <!-- Generator: Sketch 58 (84663) - https://sketch.com -->
    <title>lamp</title>
    <desc>Created with Sketch.</desc>
    <g id="BDO-Home" stroke="none" stroke-width="1" fill="none" fill-rule="evenodd">
        <g transform="translate(-533.000000, -3682.000000)" fill="#C2CCC7" fill-rule="nonzero" id="Group-Copy-12">
            <g transform="translate(336.000000, 3656.000000)">
                <g id="lamp" transform="translate(197.000000, 26.000000)">
                    <path d="M60.0088706,21.198004 C54.9000671,15.9928715 48.0858089,13.074589 40.8217525,12.9794938 C33.4533729,12.882877 26.4871661,15.7129111 21.2022231,20.9469527 C15.9203037,26.1779513 12.9992595,33.1389222 12.9772173,40.547982 C12.9539016,48.5671728 16.3852215,56.1930497 22.3913542,61.4704547 C26.7396581,65.2910008 29.2335829,70.7243621 29.2335829,76.375301 L29.2335829,90.3269129 C29.2335829,95.6606143 33.5456006,100 38.8456631,100 L42.0713607,100 C47.3706672,100 51.682685,95.6606143 51.682685,90.3269129 L51.682685,76.5540801 C51.682685,70.7418595 54.1289839,65.2856754 58.3948877,61.5838083 C64.4599856,56.3216184 67.9389313,48.6843302 67.9389313,40.6324266 C67.9389313,33.3093329 65.1229661,26.4069405 60.0088706,21.198004 Z M40.4339431,54.6517462 L39.1503164,54.6517462 C38.448782,54.6517462 37.8780294,54.077371 37.8780294,53.3706233 C37.8780294,52.6646363 38.448782,52.090261 39.1503164,52.090261 C39.8578985,52.090261 40.4339431,52.6699614 40.4339431,53.3820345 L40.4339431,54.6517462 Z M40.4581339,66.226738 C41.5255549,66.226738 42.3934013,67.1000924 42.3934013,68.1742884 L42.3934013,74.7959596 L38.5228665,74.7959596 L38.5228665,68.1742884 C38.5228665,67.1000924 39.390713,66.226738 40.4581339,66.226738 Z M47.8121501,78.6910604 L47.8121501,81.5553287 L33.1041177,81.5553287 L33.1041177,78.6910604 L47.8121501,78.6910604 Z M33.1041177,85.4504294 L47.8121501,85.4504294 L47.8121501,88.3146978 L33.1041177,88.3146978 L33.1041177,85.4504294 Z M42.0706047,96.1048993 L38.8456631,96.1048993 C36.3343511,96.1048993 34.1964854,94.4738258 33.4185987,92.2097985 L47.4976692,92.2097985 C46.7197824,94.4738258 44.5819165,96.1048993 42.0706047,96.1048993 Z M55.8677008,58.6343344 C51.1829929,62.6990851 48.3262055,68.5135881 47.8748952,74.7959596 L46.2639362,74.7959596 L46.2639362,68.1742884 C46.2639362,66.4351867 45.5041926,64.8725817 44.3029659,63.801429 C44.3029659,63.7930608 44.3044779,63.7846923 44.3044779,63.7755632 L44.3044779,57.3745128 C45.8806625,56.236413 46.9087733,54.3771112 46.9087733,52.2804514 L46.9087733,49.2640306 C46.9087733,45.1148355 43.5545618,41.7385743 39.430779,41.7385743 L35.942762,41.7385743 C34.873829,41.7385743 34.0074946,42.6104075 34.0074946,43.6861247 C34.0074946,44.761842 34.873829,45.633675 35.942762,45.633675 L39.430779,45.633675 C41.4204758,45.633675 43.0382384,47.2624663 43.0382384,49.2640306 L43.0382384,49.9806684 C42.0925276,48.8874537 40.7007983,48.1951603 39.1503164,48.1951603 C36.314696,48.1951603 34.0074946,50.5170055 34.0074946,53.371384 C34.0074946,56.2250018 36.314696,58.546847 39.1503164,58.546847 L40.4339431,58.546847 L40.4339431,62.332398 C37.2437757,62.3453309 34.6523317,64.9608303 34.6523317,68.1742884 L34.6523317,74.7959596 L33.0504442,74.7959596 C32.6263486,68.5965111 29.7226913,62.7409271 24.9374404,58.5361962 C19.7757193,54.0020555 16.8274603,47.4496136 16.8477661,40.5601542 C16.8667704,34.1986634 19.3773263,28.2190754 23.9176452,23.7229727 C28.4602318,19.2238271 34.4406618,16.7909106 40.7711029,16.8745945 C53.6171963,17.0419619 64.0683965,27.7002357 64.0683965,40.6324266 C64.0683965,47.5507949 61.0793154,54.1116052 55.8677008,58.6343344 L55.8677008,58.6343344 Z" id="Shape"></path>
                    <path d="M40.8674285,22.1375004 L40.8378373,22.1375004 C39.7940055,22.1270642 38.9439965,22.9701669 38.9314203,24.0234861 C38.9195838,25.0775506 39.7666336,25.9422713 40.8126848,25.9541985 L40.8415361,25.9541985 L40.8644694,25.9541985 C41.8994239,25.9541985 42.7361168,25.1148232 42.7479534,24.068213 C42.7605296,23.0141483 41.9134798,22.1501732 40.8674285,22.1375004 Z" id="Path"></path>
                    <path d="M49.4538673,23.9136734 C48.515775,23.383554 47.332534,23.7256657 46.8103596,24.6780315 C46.2889444,25.6296264 46.6251701,26.8308707 47.5632622,27.36099 C52.0844724,29.9168125 54.8926774,34.7641683 54.8926774,40.0121957 C54.8926774,41.1017142 55.7624619,41.9847328 56.8356517,41.9847328 C57.9088413,41.9847328 58.778626,41.1017142 58.778626,40.0121957 C58.778626,33.3340789 55.2053748,27.1660479 49.4538673,23.9136734 L49.4538673,23.9136734 Z" id="Path"></path>
                    <path d="M40.8396947,9.16030534 C41.8937857,9.16030534 42.7480916,8.2878229 42.7480916,7.21130421 L42.7480916,1.94900114 C42.7480916,0.872482443 41.8937857,0 40.8396947,0 C39.7856034,0 38.9312977,0.872482443 38.9312977,1.94900114 L38.9312977,7.21130421 C38.9312977,8.2878229 39.7856034,9.16030534 40.8396947,9.16030534 Z" id="Path"></path>
                    <path d="M78.9670294,38.1679389 L73.7047263,38.1679389 C72.6282076,38.1679389 71.7557252,39.0222447 71.7557252,40.0763359 C71.7557252,41.1304269 72.6282076,41.9847328 73.7047263,41.9847328 L78.9670294,41.9847328 C80.0435479,41.9847328 80.9160305,41.1304269 80.9160305,40.0763359 C80.9160305,39.0222447 80.0435479,38.1679389 78.9670294,38.1679389 Z" id="Path"></path>
                    <path d="M7.21130421,38.1679389 L1.94900114,38.1679389 C0.872482443,38.1679389 0,39.0222447 0,40.0763359 C0,41.1304269 0.872482443,41.9847328 1.94900114,41.9847328 L7.21130421,41.9847328 C8.2878229,41.9847328 9.16030534,41.1304269 9.16030534,40.0763359 C9.16030534,39.0222447 8.2878229,38.1679389 7.21130421,38.1679389 Z" id="Path"></path>
                    <path d="M65.1657128,62.4041225 C64.4029071,61.6413739 63.166399,61.6413739 62.4035933,62.4041225 C61.6415503,63.1661084 61.6415503,64.4025237 62.4035933,65.1652723 L66.1321878,68.8935873 C66.5135906,69.2741989 67.0132284,69.4656489 67.5128663,69.4656489 C68.0125039,69.4656489 68.5121417,69.2741989 68.8935445,68.8935873 C69.6563503,68.1308388 69.6563503,66.8944234 68.8935445,66.1316748 L65.1657128,62.4041225 Z" id="Path"></path>
                    <path d="M15.7506333,18.5118651 C16.1320218,18.8932679 16.6316409,19.0839695 17.13126,19.0839695 C17.6308791,19.0839695 18.1312609,18.8932679 18.5118866,18.5118651 C19.2746638,17.7498221 19.2746638,16.513314 18.5118866,15.7505083 L14.7841945,12.0219138 C14.0214174,11.259871 12.7849557,11.259871 12.0221785,12.0219138 C11.2594013,12.7847195 11.2601643,14.0212276 12.0221785,14.7840333 L15.7506333,18.5118651 Z" id="Path"></path>
                    <path d="M66.1321045,12.0227961 L62.4041797,15.750162 C61.6413549,16.5128724 61.6413549,17.7492261 62.4041797,18.5119365 C62.7855921,18.8932919 63.2852424,19.0839695 63.7848926,19.0839695 C64.2845429,19.0839695 64.784193,18.8932919 65.1656054,18.5119365 L68.8935303,14.7838078 C69.6563551,14.0210973 69.6563551,12.7847437 68.8935303,12.0220332 C68.1314682,11.2593228 66.8949293,11.2600856 66.1321045,12.0227961 Z" id="Path"></path>
                    <path d="M15.750425,62.4041225 L12.0225003,66.1316748 C11.2596755,66.8944234 11.2596755,68.1308388 12.0225003,68.8935873 C12.4039125,69.2741989 12.9035628,69.4656489 13.4032131,69.4656489 C13.9028634,69.4656489 14.4025137,69.2741989 14.7839259,68.8935873 L18.5118509,65.1652723 C19.2746757,64.4025237 19.2746757,63.1661084 18.5118509,62.4041225 C17.7497888,61.6413739 16.5132498,61.6413739 15.750425,62.4041225 L15.750425,62.4041225 Z" id="Path"></path>
                </g>
            </g>
        </g>
    </g>
</svg>