<?xml version="1.0" encoding="UTF-8"?>
<svg width="96px" height="100px" viewBox="0 0 96 100" version="1.1" xmlns="http://www.w3.org/2000/svg" xmlns:xlink="http://www.w3.org/1999/xlink">
    <!-- Generator: Sketch 58 (84663) - https://sketch.com -->
    <title>payment</title>
    <desc>Created with Sketch.</desc>
    <g id="Symbols" stroke="none" stroke-width="1" fill="none" fill-rule="evenodd">
        <g id="Blocks/Tiles/CalcCuota-Tile" transform="translate(-192.000000, -25.000000)" fill="#C2CCC7" fill-rule="nonzero">
            <g id="Group-Copy-20">
                <g id="payment" transform="translate(192.000000, 25.000000)">
                    <path d="M89.7134766,29.1666016 L43.8802734,29.1666016 C40.4285156,29.1666016 37.6302734,31.9648438 37.6302734,35.4166016 L37.6302734,93.75 C37.6302734,97.2017578 40.4285156,100 43.8802734,100 L89.7136719,100 C93.1654297,100 95.9636719,97.2017578 95.9636719,93.75 L95.9636719,35.4166016 C95.9636719,31.9648438 93.1652344,29.1666016 89.7134766,29.1666016 Z M91.7970703,93.75 C91.7970703,94.9005859 90.8640625,95.8333984 89.7134766,95.8333984 L43.8802734,95.8333984 C42.7296875,95.8333984 41.796875,94.9005859 41.796875,93.75 L41.796875,35.4166016 C41.796875,34.2660156 42.7296875,33.3332031 43.8802734,33.3332031 L89.7136719,33.3332031 C90.8642578,33.3332031 91.7970703,34.2660156 91.7970703,35.4166016 L91.7970703,93.75 L91.7970703,93.75 Z" id="Shape"></path>
                    <rect id="Rectangle" x="39.7134766" y="52.0833984" width="54.1666016" height="4.16660156"></rect>
                    <path d="M87.6302734,37.5 L48.046875,37.5 C46.8962891,37.5 45.9634766,38.4328125 45.9634766,39.5833984 L45.9634766,47.9167969 L50.1300781,47.9167969 L50.1300781,41.6667969 L85.546875,41.6667969 L85.546875,47.9167969 L89.7134766,47.9167969 L89.7134766,39.5833984 C89.7134766,38.4328125 88.7808594,37.5 87.6302734,37.5 Z" id="Path"></path>
                    <path d="M56.3802734,60.4166016 L48.046875,60.4166016 C46.8962891,60.4166016 45.9634766,61.3494141 45.9634766,62.5 L45.9634766,70.8333984 C45.9634766,71.9839844 46.8962891,72.9167969 48.046875,72.9167969 L56.3802734,72.9167969 C57.5308594,72.9167969 58.4636719,71.9839844 58.4636719,70.8333984 L58.4636719,62.5 C58.4634766,61.3494141 57.5308594,60.4166016 56.3802734,60.4166016 Z M54.296875,68.75 L50.1302734,68.75 L50.1302734,64.5833984 L54.296875,64.5833984 L54.296875,68.75 Z" id="Shape"></path>
                    <path d="M73.046875,60.4166016 L64.7134766,60.4166016 C63.5628906,60.4166016 62.6300781,61.3494141 62.6300781,62.5 L62.6300781,70.8333984 C62.6300781,71.9839844 63.5628906,72.9167969 64.7134766,72.9167969 L73.046875,72.9167969 C74.1974609,72.9167969 75.1302734,71.9839844 75.1302734,70.8333984 L75.1302734,62.5 C75.1302734,61.3494141 74.1974609,60.4166016 73.046875,60.4166016 Z M70.9634766,68.75 L66.796875,68.75 L66.796875,64.5833984 L70.9634766,64.5833984 L70.9634766,68.75 L70.9634766,68.75 Z" id="Shape"></path>
                    <path d="M56.3802734,77.0833984 L48.046875,77.0833984 C46.8962891,77.0833984 45.9634766,78.0162109 45.9634766,79.1667969 L45.9634766,87.5 C45.9634766,88.6505859 46.8962891,89.5833984 48.046875,89.5833984 L56.3802734,89.5833984 C57.5308594,89.5833984 58.4636719,88.6505859 58.4636719,87.5 L58.4636719,79.1666016 C58.4634766,78.0160156 57.5308594,77.0833984 56.3802734,77.0833984 Z M54.296875,85.4166016 L50.1302734,85.4166016 L50.1302734,81.25 L54.296875,81.25 L54.296875,85.4166016 Z" id="Shape"></path>
                    <path d="M73.046875,77.0833984 L64.7134766,77.0833984 C63.5628906,77.0833984 62.6300781,78.0162109 62.6300781,79.1667969 L62.6300781,87.5 C62.6300781,88.6505859 63.5628906,89.5833984 64.7134766,89.5833984 L73.046875,89.5833984 C74.1974609,89.5833984 75.1302734,88.6505859 75.1302734,87.5 L75.1302734,79.1666016 C75.1302734,78.0160156 74.1974609,77.0833984 73.046875,77.0833984 Z M70.9634766,85.4166016 L66.796875,85.4166016 L66.796875,81.25 L70.9634766,81.25 L70.9634766,85.4166016 L70.9634766,85.4166016 Z" id="Shape"></path>
                    <rect id="Rectangle" x="79.296875" y="60.4166016" width="8.33339844" height="4.16660156"></rect>
                    <rect id="Rectangle" x="79.296875" y="68.75" width="8.33339844" height="4.16660156"></rect>
                    <rect id="Rectangle" x="79.296875" y="77.0833984" width="8.33339844" height="4.16660156"></rect>
                    <rect id="Rectangle" x="79.296875" y="85.4166016" width="8.33339844" height="4.16660156"></rect>
                    <path d="M52.2134766,0 L6.38027344,0 C2.92851563,0 0.130273438,2.79824219 0.130273438,6.25 L0.130273438,93.75 C0.130273438,97.2017578 2.92851563,100 6.38027344,100 L33.4636719,100 L33.4636719,95.8333984 L6.38027344,95.8333984 C5.2296875,95.8333984 4.296875,94.9005859 4.296875,93.75 L4.296875,6.25 C4.296875,5.09941406 5.2296875,4.16660156 6.38027344,4.16660156 L52.2136719,4.16660156 C53.3640625,4.16660156 54.296875,5.09941406 54.296875,6.25 L54.296875,25 L58.4634766,25 L58.4634766,6.25 C58.4634766,2.79824219 55.6652344,0 52.2134766,0 Z" id="Path"></path>
                    <path d="M22.8740234,87.5 C21.9779297,82.2582031 17.8720703,78.1523438 12.6302734,77.25625 L12.6302734,68.75 L8.46347656,68.75 L8.46347656,79.1666016 C8.46347656,80.3171875 9.39628906,81.25 10.546875,81.25 C15.1492188,81.25 18.8802734,84.9810547 18.8802734,89.5833984 C18.8802734,90.7339844 19.8130859,91.6667969 20.9636719,91.6667969 L31.3802734,91.6667969 L31.3802734,87.5 L22.8740234,87.5 Z" id="Path"></path>
                    <path d="M48.046875,18.75 C43.4445313,18.75 39.7134766,15.0189453 39.7134766,10.4166016 C39.7134766,9.26601563 38.7806641,8.33320313 37.6300781,8.33320313 L20.9634766,8.33320313 C19.8128906,8.33320313 18.8800781,9.26601562 18.8800781,10.4166016 C18.8802734,15.0189453 15.1492188,18.75 10.546875,18.75 C9.39628906,18.75 8.46347656,19.6828125 8.46347656,20.8333984 L8.46347656,31.25 L12.6300781,31.25 L12.6300781,22.74375 C17.871875,21.8476563 21.9777344,17.7417969 22.8738281,12.5 L35.7197266,12.5 C36.6158203,17.7417969 40.7216797,21.8476562 45.9634766,22.74375 L45.9634766,22.9166016 L50.1300782,22.9166016 L50.1300782,20.8332031 C50.1300782,19.6828125 49.1974609,18.75 48.046875,18.75 Z" id="Path"></path>
                    <rect id="Rectangle" x="8.46347656" y="87.5" width="4.16660156" height="4.16660156"></rect>
                    <rect id="Rectangle" x="8.46347656" y="8.33339844" width="4.16660156" height="4.16660156"></rect>
                    <rect id="Rectangle" x="45.9634766" y="8.33339844" width="4.16660156" height="4.16660156"></rect>
                    <path d="M29.296875,33.3333984 L29.296875,29.1667969 C17.7910156,29.1667969 8.46347656,38.4941406 8.46347656,50.0001953 C8.46347656,61.50625 17.7910156,70.8333984 29.296875,70.8333984 L29.296875,66.6667969 C20.0921875,66.6667969 12.6302734,59.2048828 12.6302734,50.0001953 C12.6302734,40.7955078 20.0921875,33.3333984 29.296875,33.3333984 Z" id="Path"></path>
                </g>
            </g>
        </g>
    </g>
</svg>