<?xml version="1.0" encoding="UTF-8"?>
<svg width="116px" height="110px" viewBox="0 0 116 110" version="1.1" xmlns="http://www.w3.org/2000/svg" xmlns:xlink="http://www.w3.org/1999/xlink">
    <!-- Generator: Sketch 58 (84663) - https://sketch.com -->
    <title>call-bubble</title>
    <desc>Created with Sketch.</desc>
    <g id="BDO-Home" stroke="none" stroke-width="1" fill="none" fill-rule="evenodd">
        <g transform="translate(-1088.000000, -584.000000)" fill="#C2CCC7" fill-rule="nonzero" id="Group-Copy-8">
            <g transform="translate(923.000000, 562.000000)">
                <g id="call-bubble" transform="translate(165.076294, 22.035422)">
                    <path d="M61.7468251,109.92085 C62.1477549,109.944586 62.5486846,109.968321 62.9260303,109.968321 C67.2890898,109.968321 70.9446261,108.378014 73.7983028,105.24487 C73.8218869,105.221134 73.8690551,105.173662 73.8926392,105.149926 C74.8360034,104.010601 75.9208723,102.966219 77.0764934,101.85063 C77.878353,101.09108 78.6802126,100.284058 79.4584881,99.4533003 C83.3262813,95.3944547 83.3026972,90.0538683 79.4113199,86.1374383 L69.3409069,76.0021922 C67.4777626,74.0321092 65.2136885,73.0114638 62.8316939,73.0114638 C60.4732834,73.0114638 58.1856252,74.0321092 56.2753127,75.9784562 L50.7094638,81.5801379 C50.3321181,81.3665145 49.9311884,81.176627 49.5538427,80.9867395 C48.9170718,80.6544363 48.3038851,80.3458691 47.7850348,80.0135659 C42.3842747,76.5718547 37.4787808,72.0620262 32.809128,66.270457 C30.5922221,63.4696162 29.0828394,61.0722863 28.0215546,58.7699002 C29.4366009,57.4406876 30.7808949,56.087739 32.0780207,54.7585264 C32.596871,54.2363357 33.1157214,53.7141451 33.6345717,53.1919544 C35.6156365,51.1981355 36.6533371,48.8957494 36.6533371,46.5221554 C36.6533371,44.1485615 35.6156365,41.8461754 33.6345717,39.8523565 L28.6347414,34.8203373 C28.0687228,34.2506748 27.5027043,33.6572763 26.9366858,33.0876137 C25.8282329,31.9245527 24.6490276,30.7377557 23.5169905,29.6696384 C21.6538462,27.7944992 19.4133562,26.7975898 17.0549457,26.7975898 C14.7201193,26.7975898 12.4560452,27.7707633 10.4985645,29.6696384 L4.22519249,35.9833983 C1.81961376,38.4282001 0.428151556,41.3951925 0.145142294,44.8131678 C-0.302955705,50.2724339 1.30076345,55.3519249 2.52713692,58.6986923 C5.49873417,66.7926477 9.97971416,74.3169405 16.6068477,82.3634239 C24.6726117,92.0476872 34.389263,99.7143957 45.4737925,105.102454 C49.6953473,107.120009 55.3791167,109.517339 61.7468251,109.92085 Z M21.0170754,78.6131455 C14.8144557,71.1125887 10.6636532,64.1342225 7.9043129,56.6574016 C6.22984143,52.1238371 5.59307059,48.6109181 5.87607986,45.2878866 C6.04116859,43.2465958 6.84302817,41.5376082 8.3524109,40.018508 L14.5314465,33.7996919 C15.097465,33.2537653 15.993661,32.589159 17.0549457,32.589159 C18.0690622,32.589159 18.91809,33.2300294 19.5076927,33.8234278 C20.6161456,34.8678092 21.6774303,35.9596624 22.8094674,37.1227234 C23.3754859,37.7161219 23.9650885,38.3095204 24.5546912,38.9029189 L29.5545215,43.934938 C30.1677082,44.5520725 30.8752314,45.4777741 30.8752314,46.4984195 C30.8752314,47.5190649 30.1441241,48.4447665 29.5545215,49.0619009 C29.0120871,49.6078276 28.4932367,50.1300182 27.9743864,50.6759448 C26.4414196,52.2425168 24.9792051,53.737881 23.39907,55.1620374 C23.3519018,55.2095093 23.3283177,55.2332452 23.2811495,55.2807171 C21.5595098,57.0134406 21.8661032,58.7461642 22.2434489,59.8854893 C22.267033,59.9566971 22.2906171,60.004169 22.3142012,60.0753768 C23.6349111,63.2797287 25.4744713,66.3179289 28.328148,69.9257917 C33.4223147,76.2395516 38.7759066,81.152891 44.695517,84.9269054 C45.4502084,85.4253601 46.2284838,85.8051352 46.9831752,86.1849102 C47.6199461,86.5172133 48.2331328,86.8257806 48.7519831,87.1580837 C48.8463195,87.2055556 48.9170718,87.2530275 49.0114083,87.3004993 C50.8273844,88.202465 52.6197764,87.8938978 54.0819909,86.3985336 L60.3553629,80.0847738 C60.9213814,79.5151112 61.8175774,78.826769 62.8316939,78.826769 C63.8222263,78.826769 64.64767,79.4913753 65.2136885,80.0847738 L75.3312697,90.2674918 C77.0057411,91.9527435 77.0057411,93.6379952 75.2605173,95.4656625 C74.5765783,96.2014766 73.8218869,96.9135548 73.0436114,97.6731049 C71.8644062,98.8361659 70.6144486,100.022963 69.4824116,101.375911 C67.7136037,103.274787 65.6382024,104.153016 62.9024462,104.153016 C62.619437,104.153016 62.3600118,104.153016 62.0770025,104.12928 C56.6998266,103.773241 51.6764121,101.660743 47.9265394,99.8568113 C37.6202854,94.8247921 28.5639891,87.6802744 21.0170754,78.6131455 Z" id="Shape"></path>
                    <path d="M69.5309647,64.0744292 C72.6804875,64.852203 75.9240259,65.2528743 79.2145721,65.2528743 C99.1928884,65.2528743 115.434084,50.8051366 115.434084,33.0577524 C115.434084,15.3103682 99.1928884,0.862630425 79.2145721,0.862630425 C59.2362559,0.862630425 42.9950599,15.2867993 42.9950599,33.0577524 C42.9950599,39.8691654 45.4394657,46.5155962 49.905207,51.9835818 C49.0590665,53.6098361 47.8838714,54.9296947 46.4266295,55.8724508 C45.0869072,56.7680691 44.4523018,58.3471857 44.8048603,59.9027333 C45.1574189,61.4582809 46.4031256,62.5895883 47.977887,62.8252773 C51.0568981,63.2495175 57.0268891,63.4852066 62.5973138,60.1148534 C63.9605401,59.2899418 64.4071142,57.522274 63.5844776,56.1552776 C62.7618411,54.7882812 60.9990485,54.3404721 59.6358222,55.1653837 C57.5674788,56.4145356 55.3581121,56.9801893 53.4072883,57.1923094 C54.4884678,55.825313 55.3346082,54.2461965 55.9927174,52.4785287 C56.3687799,51.4650659 56.1337409,50.3101896 55.4051199,49.5088469 C51.0568981,44.7714973 48.7535158,39.0913916 48.7535158,33.0341835 C48.7535158,18.4686012 62.4092826,6.61344284 79.2145721,6.61344284 C96.0198617,6.61344284 109.675628,18.4686012 109.675628,33.0341835 C109.675628,47.5997657 96.0198617,59.4549241 79.2145721,59.4549241 C76.3941039,59.4549241 73.5971397,59.1249595 70.894191,58.4650302 C69.3664374,58.0879277 67.791676,59.0306838 67.4156136,60.5862315 C67.0395511,62.1417791 67.9797072,63.6973267 69.5309647,64.0744292 Z" id="Path"></path>
                    <circle id="Oval" cx="79.2145721" cy="33.5049068" r="3.1300813"></circle>
                    <circle id="Oval" cx="89.9462794" cy="33.5049068" r="3.1300813"></circle>
                    <circle id="Oval" cx="68.4828648" cy="33.5049068" r="3.1300813"></circle>
                </g>
            </g>
        </g>
    </g>
</svg>