<?xml version="1.0" encoding="UTF-8"?>
<svg width="127px" height="100px" viewBox="0 0 127 100" version="1.1" xmlns="http://www.w3.org/2000/svg" xmlns:xlink="http://www.w3.org/1999/xlink">
    <!-- Generator: Sketch 58 (84663) - https://sketch.com -->
    <title>driver-license</title>
    <desc>Created with Sketch.</desc>
    <g id="BDO-Home" stroke="none" stroke-width="1" fill="none" fill-rule="evenodd">
        <g transform="translate(-1058.000000, -2160.000000)" fill="#C2CCC7" fill-rule="nonzero" id="Group-Copy">
            <g transform="translate(896.000000, 2134.000000)">
                <g id="driver-license" transform="translate(162.000000, 26.000000)">
                    <path d="M114.356436,0 L98.6517327,0 C97.284901,0 96.1764851,1.10816832 96.1764851,2.47524752 C96.1764851,3.84232673 97.284901,4.95049505 98.6517327,4.95049505 L114.356436,4.95049505 C118.45099,4.95049505 121.782178,8.28168317 121.782178,12.3762376 L121.782178,13.8613861 L4.95049505,13.8613861 L4.95049505,12.3762376 C4.95049505,8.28168317 8.28168317,4.95049505 12.3762376,4.95049505 L78.8497525,4.95049505 C80.2165842,4.95049505 81.325,3.84232673 81.325,2.47524752 C81.325,1.10816832 80.2165842,0 78.8497525,0 L12.3762376,0 C5.5519802,0 0,5.5519802 0,12.3762376 L0,87.6237624 C0,94.4480198 5.5519802,100 12.3762376,100 L114.356436,100 C121.180693,100 126.732673,94.4480198 126.732673,87.6237624 L126.732673,12.3762376 C126.732673,5.5519802 121.180693,0 114.356436,0 Z M114.356436,95.049505 L12.3762376,95.049505 C8.28168317,95.049505 4.95049505,91.7183168 4.95049505,87.6237624 L4.95049505,86.1386139 L54.3715347,86.1386139 C55.7383663,86.1386139 56.8467822,85.0304455 56.8467822,83.6633663 C56.8467822,82.2962871 55.7383663,81.1881188 54.3715347,81.1881188 L4.95049505,81.1881188 L4.95049505,18.8118812 L121.782178,18.8118812 L121.782178,81.1881188 L74.1735149,81.1881188 C72.8066832,81.1881188 71.6982673,82.2962871 71.6982673,83.6633663 C71.6982673,85.0304455 72.8066832,86.1386139 74.1735149,86.1386139 L121.782178,86.1386139 L121.782178,87.6237624 C121.782178,91.7183168 118.45099,95.049505 114.356436,95.049505 Z" id="XMLID_1397_"></path>
                    <path d="M88.75,4.95049505 C89.4009901,4.95049505 90.039604,4.68564356 90.5,4.22524752 C90.9601485,3.76485149 91.2252475,3.12623762 91.2252475,2.47524752 C91.2252475,1.82425743 90.960396,1.18564356 90.5,0.725247525 C90.039604,0.264851485 89.4032178,-7.10542736e-15 88.75,-7.10542736e-15 C88.0990099,-7.10542736e-15 87.460396,0.264851485 87,0.725247525 C86.5398515,1.18564356 86.2747525,1.82425743 86.2747525,2.47524752 C86.2747525,3.12623762 86.539604,3.76485149 87,4.22524752 C87.460396,4.68564356 88.0990099,4.95049505 88.75,4.95049505 Z" id="XMLID_1437_"></path>
                    <path d="M64.2722772,81.1881188 C63.6212871,81.1881188 62.9826733,81.4529703 62.5222772,81.9133663 C62.0618812,82.3737624 61.7970297,83.0123762 61.7970297,83.6633663 C61.7970297,84.3143564 62.0616337,84.9529703 62.5222772,85.4133663 C62.9829208,85.8737624 63.6212871,86.1386139 64.2722772,86.1386139 C64.9232673,86.1386139 65.5618812,85.8737624 66.0220297,85.4133663 C66.4824257,84.9529703 66.7475248,84.3143564 66.7475248,83.6633663 C66.7475248,83.0123762 66.4826733,82.3737624 66.0220297,81.9133663 C65.5618812,81.4529703 64.9232673,81.1881188 64.2722772,81.1881188 Z" id="XMLID_1451_"></path>
                    <path d="M43.1311881,23.7623762 L17.2648515,23.7623762 C13.2044554,23.7623762 9.9009901,27.0658416 9.9009901,31.1262376 L9.9009901,56.9925743 C9.9009901,61.0529703 13.2044554,64.3564356 17.2648515,64.3564356 L43.1311881,64.3564356 C47.1915842,64.3564356 50.4950495,61.0529703 50.4950495,56.9925743 L50.4950495,31.1262376 C50.4950495,27.0658416 47.1915842,23.7623762 43.1311881,23.7623762 Z M17.2648515,28.7128713 L43.1311881,28.7128713 C44.4618812,28.7128713 45.5445545,29.7955446 45.5445545,31.1262376 L45.5445545,55.0188119 C44.0091584,51.0111386 40.9485149,47.7549505 37.0752475,45.9618812 C38.1623762,44.5205446 38.8079208,42.7284653 38.8079208,40.7883663 C38.8079208,36.0405941 34.9455446,32.1782178 30.1980198,32.1782178 C25.450495,32.1782178 21.5881188,36.0405941 21.5881188,40.7881188 C21.5881188,42.7284653 22.2339109,44.520297 23.3207921,45.9616337 C19.4475248,47.7549505 16.3868812,51.0108911 14.8514851,55.0188119 L14.8514851,31.1262376 C14.8514851,29.7955446 15.9341584,28.7128713 17.2648515,28.7128713 Z M26.5386139,40.7881188 C26.5386139,38.770297 28.180198,37.1287129 30.1980198,37.1287129 C32.2158416,37.1287129 33.8574257,38.770297 33.8574257,40.7881188 C33.8574257,42.8059406 32.2158416,44.4475248 30.1980198,44.4475248 C28.180198,44.4475248 26.5386139,42.8059406 26.5386139,40.7881188 Z M30.1980198,49.3980198 C36.0289604,49.3980198 40.8549505,53.7690594 41.580198,59.4059406 L18.8158416,59.4059406 C19.5410891,53.7690594 24.3670792,49.3980198 30.1980198,49.3980198 Z" id="XMLID_1682_"></path>
                    <path d="M77.6121287,70.5673267 L77.6121287,71.7821782 C77.6121287,73.1492574 78.7205446,74.2574257 80.0873762,74.2574257 C81.4542079,74.2574257 82.5626238,73.1492574 82.5626238,71.7821782 L82.5626238,70.5673267 L102.091089,70.5673267 L102.091089,71.7821782 C102.091089,73.1492574 103.199505,74.2574257 104.566337,74.2574257 C105.933168,74.2574257 107.041584,73.1492574 107.041584,71.7821782 L107.041584,70.5673267 L111.636386,70.5673267 C113.003218,70.5673267 114.111634,69.4591584 114.111634,68.0920792 L114.111634,58.1037129 C114.111634,55.9589109 113.12995,54.0388614 111.592327,52.7695545 L112.230198,52.1316832 C113.196782,51.165099 113.196782,49.5977723 112.230198,48.6309406 C111.263366,47.6643564 109.696535,47.6643564 108.729455,48.6309406 L108.55297,48.8074257 L107.175495,43.1990099 C106.381188,39.965099 103.500495,37.7061881 100.170297,37.7061881 L84.4829208,37.7061881 C81.1527228,37.7061881 78.2720297,39.9648515 77.4779703,43.1987624 L76.100495,48.8074257 L75.9237624,48.6306931 C74.9569307,47.6641089 73.390099,47.6641089 72.4230198,48.6306931 C71.4564356,49.5972772 71.4564356,51.164604 72.4230198,52.1314356 L73.0608911,52.7693069 C71.5232673,54.0386139 70.5415842,55.9584158 70.5415842,58.1034653 L70.5415842,68.0918317 C70.5415842,69.4589109 71.65,70.5670792 73.0168317,70.5670792 L77.6121287,70.5670792 L77.6121287,70.5673267 Z M109.161139,65.6168317 L75.4923267,65.6168317 L75.4923267,58.1037129 C75.4923267,57.0207921 76.3735149,56.1393564 77.4564356,56.1393564 L107.180693,56.1393564 C107.185396,56.1393564 107.190099,56.1398515 107.19505,56.1398515 C107.197277,56.1398515 107.199257,56.1393564 107.201485,56.1393564 C108.282426,56.1418317 109.161139,57.0217822 109.161139,58.1034653 L109.161139,65.6168317 L109.161139,65.6168317 Z M84.4831683,42.6566832 L100.170545,42.6566832 C101.215347,42.6566832 102.118812,43.365099 102.368069,44.379703 L104.040594,51.1888614 L80.6133663,51.1888614 L82.2858911,44.379703 C82.5346535,43.3653465 83.4383663,42.6566832 84.4831683,42.6566832 Z" id="XMLID_1814_"></path>
                    <path d="M80.789604,58.4034653 C80.1361386,58.4034653 79.4975248,58.6683168 79.0371287,59.1287129 C78.5769802,59.5891089 78.3143564,60.2277228 78.3143564,60.8787129 C78.3143564,61.529703 78.5769802,62.1683168 79.0371287,62.6287129 C79.4975248,63.0891089 80.1361386,63.3539604 80.789604,63.3539604 C81.4405941,63.3539604 82.0792079,63.0891089 82.539604,62.6287129 C82.9997525,62.1683168 83.2623762,61.529703 83.2623762,60.8787129 C83.2623762,60.2252475 82.9997525,59.5891089 82.539604,59.1287129 C82.0792079,58.6683168 81.4405941,58.4034653 80.789604,58.4034653 Z" id="XMLID_2674_"></path>
                    <path d="M103.863614,58.4034653 C103.212624,58.4034653 102.57401,58.6683168 102.113861,59.1287129 C101.653465,59.5891089 101.388366,60.2277228 101.388366,60.8787129 C101.388366,61.529703 101.653218,62.1683168 102.113861,62.6287129 C102.57401,63.0891089 103.212624,63.3539604 103.863614,63.3539604 C104.517327,63.3539604 105.153218,63.0891089 105.616089,62.6287129 C106.076485,62.1683168 106.338861,61.529703 106.338861,60.8787129 C106.338861,60.2277228 106.076485,59.5891089 105.616089,59.1287129 C105.153218,58.6683168 104.517327,58.4034653 103.863614,58.4034653 Z" id="XMLID_2675_"></path>
                    <path d="M57.9207921,30.6930693 L75.815099,30.6930693 C77.1819307,30.6930693 78.2903465,29.584901 78.2903465,28.2178218 C78.2903465,26.8507426 77.1819307,25.7425743 75.815099,25.7425743 L57.9207921,25.7425743 C56.5539604,25.7425743 55.4455446,26.8507426 55.4455446,28.2178218 C55.4455446,29.584901 56.5539604,30.6930693 57.9207921,30.6930693 Z" id="XMLID_2676_"></path>
                    <path d="M57.9207921,42.0792079 L64.1089109,42.0792079 C65.4757426,42.0792079 66.5841584,40.9710396 66.5841584,39.6039604 C66.5841584,38.2368812 65.4757426,37.1287129 64.1089109,37.1287129 L57.9207921,37.1287129 C56.5539604,37.1287129 55.4455446,38.2368812 55.4455446,39.6039604 C55.4455446,40.9710396 56.5539604,42.0792079 57.9207921,42.0792079 Z" id="XMLID_2677_"></path>
                    <path d="M66.5841584,50.990099 C66.5841584,49.6230198 65.4757426,48.5148515 64.1089109,48.5148515 L57.9207921,48.5148515 C56.5539604,48.5148515 55.4455446,49.6230198 55.4455446,50.990099 C55.4455446,52.3571782 56.5539604,53.4653465 57.9207921,53.4653465 L64.1089109,53.4653465 C65.4757426,53.4653465 66.5841584,52.3571782 66.5841584,50.990099 Z" id="XMLID_2678_"></path>
                    <path d="M85.7391089,30.6930693 L103.633416,30.6930693 C105.000248,30.6930693 106.108663,29.584901 106.108663,28.2178218 C106.108663,26.8507426 105.000248,25.7425743 103.633416,25.7425743 L85.7391089,25.7425743 C84.3722772,25.7425743 83.2638614,26.8507426 83.2638614,28.2178218 C83.2638614,29.584901 84.3720297,30.6930693 85.7391089,30.6930693 Z" id="XMLID_2679_"></path>
                    <path d="M23.9806931,69.3893564 L12.3762376,69.3893564 C11.0094059,69.3893564 9.9009901,70.4975248 9.9009901,71.864604 C9.9009901,73.2316832 11.0094059,74.3398515 12.3762376,74.3398515 L23.9806931,74.3398515 C25.3475248,74.3398515 26.4559406,73.2316832 26.4559406,71.864604 C26.4559406,70.4975248 25.3475248,69.3893564 23.9806931,69.3893564 Z" id="XMLID_2680_"></path>
                    <path d="M48.019802,69.3893564 L36.3861386,69.3893564 C35.0193069,69.3893564 33.9108911,70.4975248 33.9108911,71.864604 C33.9108911,73.2316832 35.0193069,74.3398515 36.3861386,74.3398515 L48.019802,74.3398515 C49.3866337,74.3398515 50.4950495,73.2316832 50.4950495,71.864604 C50.4950495,70.4975248 49.3866337,69.3893564 48.019802,69.3893564 Z" id="XMLID_2681_"></path>
                </g>
            </g>
        </g>
    </g>
</svg>