<?xml version="1.0" encoding="UTF-8"?>
<svg width="136px" height="120px" viewBox="0 0 136 120" version="1.1" xmlns="http://www.w3.org/2000/svg" xmlns:xlink="http://www.w3.org/1999/xlink">
    <!-- Generator: Sketch 59.1 (86144) - https://sketch.com -->
    <title>cash</title>
    <desc>Created with Sketch.</desc>
    <g id="BDO-Home" stroke="none" stroke-width="1" fill="none" fill-rule="evenodd">
        <g transform="translate(-512.000000, -1503.000000)" fill="#C2CCC7" fill-rule="nonzero" id="cash">
            <g transform="translate(580.000000, 1563.000000) scale(-1, 1) translate(-580.000000, -1563.000000) translate(512.000000, 1503.000000)">
                <path d="M50.821112,79.0882324 L72.9704896,85.8035851 C72.9422739,85.9446639 72.8858423,86.1139585 72.8294108,86.2550373 C72.2368797,87.8633361 71.0236017,88.7662407 69.0484979,89.0766141 C61.7688299,90.2334606 49.6924813,89.4998506 49.5796183,89.4998506 C47.7173776,89.3869876 46.1090788,90.7977759 45.9962158,92.6600166 C45.8833527,94.5222573 47.2941411,96.130556 49.1563817,96.2434191 C49.6924813,96.2716349 62.0792033,97.0334606 70.1206971,95.7355353 C78.1057593,94.4658257 80.3912365,87.4400996 79.968,83.0102241 C79.8269212,81.6276515 78.8958008,80.470805 77.5696598,80.0757842 L52.768,72.57039 C40.5223568,68.8741245 27.0916515,75.7023402 26.5273361,75.9844979 C26.4709046,76.0127137 26.3862573,76.0409295 26.3298257,76.097361 L1.64102905,91.0235021 C0.0327302905,91.9828382 -0.475153527,94.070805 0.484182573,95.6791037 C1.13314523,96.7230871 2.23356017,97.3156183 3.39040664,97.3156183 C3.98293776,97.3156183 4.57546888,97.1463237 5.13978423,96.8359502 L29.7157178,82.0226722 C30.787917,81.4583568 41.594556,76.2948714 50.821112,79.0882324 Z" id="Path"></path>
                <path d="M135.355552,73.4168631 C133.408664,69.8616763 127.342274,64.1903071 118.143934,68.2533776 C109.453477,72.1189378 91.0850124,80.950473 90.8875021,81.0351203 C89.194556,81.8533776 88.4891618,83.8566971 89.3074191,85.5496432 C90.1256763,87.2425892 92.1572116,87.9479834 93.8219419,87.1297261 C94.0194523,87.0450788 112.275054,78.2417593 120.880863,74.4326307 C123.335635,73.3322158 125.395386,73.3322158 127.172979,74.4326307 C127.229411,74.4608465 127.257627,74.4890622 127.314058,74.517278 L81.2941411,108.23512 C78.021112,110.633461 73.8733942,111.621012 69.894971,111.000266 L28.841029,104.454207 C27.8816929,104.313129 26.8941411,104.567071 26.1323154,105.187817 L15.7489129,113.850058 C14.3099087,115.03512 14.1123983,117.179519 15.3256763,118.618523 C16.0028548,119.408564 16.9621909,119.831801 17.921527,119.831801 C18.6833527,119.831801 19.4451784,119.577859 20.0941411,119.041759 L29.2924813,111.367071 L68.8509876,117.687402 C74.6070041,118.618523 80.6169627,117.151303 85.3289959,113.708979 L134.424432,77.7620913 C135.750573,76.7463237 136.173809,74.9122988 135.355552,73.4168631 Z" id="Path"></path>
                <path d="M72.6319004,69.5230871 C77.908249,69.5230871 82.8460083,67.4633361 86.5987054,63.7388548 C94.30161,56.0359502 94.30161,43.5363651 86.5987054,35.8334606 C82.8742241,32.1089793 77.908249,30.0492282 72.6319004,30.0492282 C67.3555519,30.0492282 62.4177925,32.1089793 58.6650954,35.8334606 C50.9621909,43.5363651 50.9621909,56.0359502 58.6650954,63.7388548 C62.4177925,67.4633361 67.3555519,69.5230871 72.6319004,69.5230871 Z M63.4617759,40.6301411 C65.9165477,38.1753693 69.161361,36.8210124 72.6319004,36.8210124 C76.1024398,36.8210124 79.3472531,38.1753693 81.8020249,40.6301411 C86.8526473,45.6807635 86.8526473,53.9197676 81.8020249,58.97039 C79.3472531,61.4251618 76.1024398,62.7795187 72.6319004,62.7795187 C69.161361,62.7795187 65.9165477,61.4251618 63.4617759,58.97039 C58.4111535,53.9197676 58.4111535,45.6807635 63.4617759,40.6301411 Z" id="Shape"></path>
                <path d="M95.7970456,30.9521328 C99.9165477,30.9521328 103.782108,29.343834 106.688332,26.43761 C112.69829,20.4276515 112.69829,10.6649959 106.688332,4.65503734 C103.782108,1.74881328 99.9165477,0.140514523 95.7970456,0.140514523 C91.6775436,0.140514523 87.8119834,1.74881328 84.9057593,4.65503734 C78.8958008,10.6649959 78.8958008,20.4276515 84.9057593,26.43761 C87.8119834,29.3720498 91.7057593,30.9521328 95.7970456,30.9521328 Z M89.7024398,9.45171784 C91.3389544,7.81520332 93.5115685,6.91229876 95.8252614,6.91229876 C98.1389544,6.91229876 100.311568,7.81520332 101.948083,9.45171784 C105.305759,12.8093942 105.305759,18.3114689 101.948083,21.6691452 C100.311568,23.3056598 98.1389544,24.2085643 95.8252614,24.2085643 C93.5115685,24.2085643 91.3389544,23.3056598 89.7024398,21.6691452 C86.3447635,18.2832531 86.3447635,12.8093942 89.7024398,9.45171784 Z" id="Shape"></path>
            </g>
        </g>
    </g>
</svg>