<?xml version="1.0" encoding="UTF-8"?>
<svg width="127px" height="127px" viewBox="0 0 127 127" version="1.1" xmlns="http://www.w3.org/2000/svg" xmlns:xlink="http://www.w3.org/1999/xlink">
    <!-- Generator: Sketch 59.1 (86144) - https://sketch.com -->
    <title>credit-card</title>
    <desc>Created with Sketch.</desc>
    <g id="BDO-Home" stroke="none" stroke-width="1" fill="none" fill-rule="evenodd">
        <g transform="translate(-480.000000, -1160.000000)" fill="#C2CCC7" fill-rule="nonzero" id="Group-Copy-6">
            <g transform="translate(380.000000, 1140.000000)">
                <g id="credit-card" transform="translate(100.000000, 20.000000)">
                    <path d="M123.628825,43.5825535 L83.4139676,3.36639537 C81.2430608,1.19563965 78.3481051,0 75.2619051,0 C72.1759532,0 69.2807493,1.19514353 67.1098426,3.36589925 L3.36624496,67.1125929 C1.19558623,69.2835967 0,72.1784338 0,75.2647717 C0,78.3511095 1.19558623,81.2464427 3.36624496,83.4169504 L8.3251993,88.3761263 C8.32569539,88.3763743 8.32594344,88.3768704 8.32643953,88.3773666 C8.32693563,88.3778627 8.32743172,88.3783588 8.32792781,88.3788549 L41.6555141,121.70793 L37.0408489,121.70793 C35.5798524,121.70793 34.3951803,122.892407 34.3951803,124.353717 C34.3951803,125.814779 35.5798524,127 37.0408489,127 L51.722499,127 C51.7259716,127 51.7291962,127 51.7326689,127 C51.7361415,127 51.7393661,127 51.7428388,127 L89.9552134,127 C91.4162098,127 92.600882,125.815275 92.600882,124.354213 C92.600882,122.892903 91.4162098,121.708426 89.9552134,121.708426 L61.8108159,121.70793 L123.629073,59.8869109 C128.123684,55.3916035 128.123684,48.0773648 123.628825,43.5825535 Z M119.887285,56.1452038 L56.1431914,119.892146 C54.9741462,121.060995 53.4114505,121.70545 51.7423427,121.70793 L51.7222509,121.70793 C50.0536392,121.705202 48.4914396,121.060995 47.3228905,119.892146 L13.9389975,86.506513 L75.155741,25.2865383 C76.1888565,24.2533766 76.1888565,22.5779928 75.155741,21.5448311 C74.1223775,20.5116695 72.4475646,20.5116695 71.413953,21.5450792 L10.1972095,82.7650539 L7.10753689,79.6752432 C5.93650731,78.5041613 5.29158528,76.937923 5.29158528,75.2650197 C5.29158528,73.5921164 5.93650731,72.0256301 7.10778494,70.8543001 L70.8513825,7.10785445 C72.0226602,5.93677255 73.5890766,5.2918217 75.2619051,5.2918217 C76.9347336,5.2918217 78.50115,5.93677255 79.6724277,7.10810251 L93.98548,21.4215463 L32.7679924,82.6422652 C31.7348769,83.6751788 31.7348769,85.3505626 32.7679924,86.3842204 C33.2846741,86.9006772 33.9618423,87.1589056 34.6387624,87.1589056 C35.3156824,87.1589056 35.9928506,86.9004291 36.5095324,86.3839723 L97.72702,25.1635015 L119.887285,47.3240126 C122.318889,49.7559734 122.318641,53.713243 119.887285,56.1452038 Z" id="Shape"></path>
                    <path d="M65.2284882,76.7714574 C64.1997646,75.742724 62.5320716,75.742971 61.5026071,76.7714574 L40.7715427,97.5024717 C39.7428191,98.5312051 39.7428191,100.199161 40.7715427,101.228388 C41.2860279,101.742878 41.9603173,102 42.6343597,102 C43.3084021,102 43.9826915,101.742631 44.4971768,101.228388 L65.2282412,80.4973739 C66.2572118,79.4681466 66.2572118,77.8001907 65.2284882,76.7714574 Z" id="Path"></path>
                    <path d="M56.4281833,95.7845082 L47.784348,104.428033 C46.7385507,105.473793 46.7385507,107.169606 47.784348,108.215617 C48.3073722,108.738372 48.9928529,109 49.6780824,109 C50.3638141,109 51.0487925,108.738372 51.5718167,108.215617 L60.215652,99.5720921 C61.2614493,98.5263323 61.2614493,96.8305191 60.215652,95.7845082 C59.1698546,94.7384973 57.4747339,94.7384973 56.4281833,95.7845082 Z" id="Path"></path>
                    <path d="M64.7751124,88.7247291 L63.7250761,89.7744927 C62.7583466,90.7409527 62.7583466,92.3079407 63.7248441,93.2748649 C64.2079768,93.7582109 64.8417114,94 65.4749819,94 C66.1082524,94 66.7417549,93.7582109 67.2248876,93.2748649 L68.2749239,92.2251013 C69.2416534,91.2586412 69.2416534,89.6916532 68.2751559,88.7249611 C67.3091226,87.758501 65.7416099,87.758269 64.7751124,88.7247291 Z" id="Path"></path>
                    <path d="M100.741987,40.7749217 C100.245887,40.2788131 99.5729279,40 98.871195,40 C98.169462,40 97.4967508,40.2788131 97.0004031,40.7749217 L85.7749077,52.0003721 C85.278808,52.4967288 85,53.1694521 85,53.8711978 C85,54.5729435 85.278808,55.2459149 85.7749077,55.7420235 L93.2585713,63.2250783 C93.7752591,63.7417754 94.4524352,64 95.1293632,64 C95.8067873,64 96.4834672,63.7415274 97.000155,63.2250783 L108.225154,52.000124 C109.258282,50.9669778 109.258282,49.2916189 108.225154,48.2584726 L100.741987,40.7749217 Z M95.1291151,57.6128492 L91.3872833,53.8711978 L98.8709469,46.3876469 L102.612531,50.1295464 L95.1291151,57.6128492 Z" id="Shape"></path>
                    <path d="M79.475103,20 C80.1088314,20 80.7423278,19.7582296 81.2254559,19.2746889 L82.275482,18.2243105 C83.241738,17.2576931 83.241506,15.6905943 82.2747858,14.724441 C81.3082977,13.7582877 79.7408002,13.7585197 78.7745441,14.7251371 L77.724518,15.7755156 C76.758262,16.7421329 76.758494,18.3092317 77.7252142,19.275385 C78.2085743,19.7586937 78.8416066,20 79.475103,20 Z" id="Path"></path>
                    <path d="M26.7748922,88.7250121 L25.7248661,89.7749976 C24.758378,90.7412163 24.758378,92.3084212 25.7248661,93.275336 C26.2082262,93.7584453 26.8417226,94 27.4749869,94 C28.1082513,94 28.7417477,93.7584453 29.2251078,93.275336 L30.2751339,92.2253505 C31.241622,91.2586677 31.241622,89.6914628 30.2751339,88.7250121 C29.3084137,87.7583293 27.7416124,87.7583293 26.7748922,88.7250121 Z" id="Path"></path>
                </g>
            </g>
        </g>
    </g>
</svg>