<?xml version="1.0" encoding="UTF-8"?>
<svg width="82px" height="100px" viewBox="0 0 82 100" version="1.1" xmlns="http://www.w3.org/2000/svg" xmlns:xlink="http://www.w3.org/1999/xlink">
    <!-- Generator: Sketch 58 (84663) - https://sketch.com -->
    <title>faucet</title>
    <desc>Created with Sketch.</desc>
    <g id="BDO-Home" stroke="none" stroke-width="1" fill="none" fill-rule="evenodd">
        <g transform="translate(-528.000000, -3504.000000)" fill="#C2CCC7" fill-rule="nonzero" id="Group-Copy-11">
            <g transform="translate(336.000000, 3484.000000)">
                <g id="faucet" transform="translate(232.579710, 70.000000) scale(-1, 1) translate(-232.579710, -70.000000) translate(192.000000, 20.000000)">
                    <path d="M77.3630572,88.4132463 C76.827952,85.0893522 75.0809164,81.7756095 72.4435984,79.082696 C71.433429,78.0514309 70.3277399,77.1469591 69.1573313,76.3941615 C68.5204684,75.9843227 67.7099157,75.9847208 67.0736376,76.3943605 C65.9020594,77.1483524 64.7967602,78.0526252 63.7881503,79.082696 C61.1506373,81.7756095 59.4037967,85.0893522 58.8686915,88.4132463 C58.2945987,91.9805755 59.1597342,95.1508049 61.3042486,97.3401283 C62.3467777,98.4048334 63.6226478,99.1634034 65.0956003,99.5951374 C66.0121995,99.8638515 66.9915686,100 68.008366,100 C68.0510574,100 68.0941387,100 68.1368302,99.9994029 C69.0875435,99.9890524 70.0686671,99.8606668 71.0525199,99.6178288 C71.0792264,99.6112602 71.1059329,99.6040945 71.1322496,99.5963317 C72.6075414,99.1645977 73.884776,98.4054305 74.92789,97.3401283 C77.0725993,95.1504069 77.9373449,91.9801774 77.3630572,88.4132463 Z M72.164252,94.518033 C71.6041948,95.0898964 70.9078758,95.5037162 70.0938141,95.7481465 C69.4101661,95.913754 68.7378245,96.0011358 68.0941387,96.0083016 C67.4089312,96.0160644 66.7646607,95.9320664 66.174193,95.758895 C65.3453161,95.5160571 64.636521,95.0982564 64.0678865,94.5178339 C62.8378269,93.2624414 62.3612031,91.3241169 62.7253476,89.0605488 C63.1288695,86.5535456 64.4875883,84.0125053 66.5515933,81.9049904 C67.0469311,81.3992107 67.570145,80.9324444 68.1155819,80.5090703 C68.660434,80.9318472 69.183648,81.3986136 69.6793756,81.9049904 C73.7009494,86.0109421 74.8386083,91.7871013 72.164252,94.518033 Z" id="Shape"></path>
                    <path d="M77.4707764,58.3607292 L77.4707764,53.0981035 C77.4707764,41.752882 68.2449332,32.5227977 56.9047111,32.5227977 L44.09104,32.5227977 L44.09104,22.7515173 C44.09104,21.539293 43.1090688,20.5567865 41.8975049,20.5567865 L36.0984203,20.5567865 L36.0984203,15.600911 C38.7214079,14.8463491 40.7914828,12.7755398 41.5458304,10.1511225 L45.0995936,10.1511225 C45.9644056,12.2453764 48.0269981,13.722978 50.42886,13.722978 C53.6073199,13.722978 56.1930921,11.1355992 56.1930921,7.95560366 C56.1930921,4.77541113 53.607123,2.18822936 50.42886,2.18822936 C48.0266043,2.18822936 45.963618,3.66681596 45.098806,5.76185792 L41.5462242,5.76185792 C40.5918199,2.43902759 37.5285501,0 33.9048852,0 C30.2812204,0 27.2179506,2.43902759 26.2635462,5.7616609 L22.7109645,5.7616609 C21.8463494,3.66661895 19.78356,2.18803235 17.3811074,2.18803235 C14.2026475,2.18803235 11.6168752,4.77541113 11.6168752,7.95540664 C11.6168752,11.1354022 14.2028444,13.7227809 17.3811074,13.7227809 C19.7829693,13.7227809 21.8453648,12.2451794 22.7103738,10.1509255 L26.2641369,10.1509255 C27.0184846,12.7753428 29.0885595,14.8459551 31.711547,15.600714 L31.711547,20.5567865 L25.9122656,20.5567865 C24.7007017,20.5567865 23.7187305,21.539293 23.7187305,22.7515173 L23.7187305,32.5220097 L4.3870702,32.5220097 L4.3870702,31.0302232 C4.3870702,29.8179989 3.40509896,28.8354924 2.1935351,28.8354924 C0.982168139,28.8354924 0,29.8179989 0,31.0302232 L0,34.7165435 L0,52.9997938 C0,54.2120181 0.981971233,55.1945246 2.1935351,55.1945246 C3.40509896,55.1945246 4.3870702,54.2120181 4.3870702,52.9997938 L4.3870702,51.4997327 L17.3883929,51.5076133 C22.0359701,55.8170874 27.9697385,57.9737946 33.9048852,57.9737946 C39.8512556,57.9737946 45.7966415,55.8090098 50.4481568,51.4827896 L55.3202069,51.4827896 C57.0850772,51.4827896 58.5209173,52.9182302 58.5209173,54.6830775 L58.5209173,58.3601381 C56.4325301,58.6956522 54.8303043,60.5060096 54.8303043,62.6887226 L54.8303043,67.3496688 C54.8303043,69.7699801 56.7983818,71.7391304 59.2173745,71.7391304 L76.7723501,71.7391304 C79.1913428,71.7391304 81.1594203,69.7699801 81.1594203,67.3496688 L81.1594203,62.6887226 C81.1594203,60.5071917 79.558376,58.6972283 77.4707764,58.3607292 Z M49.051698,7.95067832 C49.0542578,7.19316127 49.670968,6.57749396 50.42886,6.57749396 C51.1883272,6.57749396 51.8062188,7.19572244 51.8062188,7.95560366 C51.8062188,8.71548487 51.1883272,9.33371335 50.42886,9.33371335 C49.6711649,9.33371335 49.0548485,8.71863709 49.051698,7.96131705 C49.051698,7.95954393 49.0518949,7.95796782 49.0518949,7.95639171 C49.0518949,7.95442157 49.051698,7.95264845 49.051698,7.95067832 Z M17.3813043,9.33351634 C16.6218371,9.33351634 16.0039454,8.71528786 16.0039454,7.95540664 C16.0039454,7.19552543 16.6218371,6.57729695 17.3813043,6.57729695 C18.1407715,6.57729695 18.7586632,7.19552543 18.7586632,7.95540664 C18.7582694,8.71528786 18.1405746,9.33351634 17.3813043,9.33351634 Z M30.3410799,7.96230212 C30.3410799,7.96033198 30.3412768,7.95836185 30.3412768,7.95639171 C30.3412768,7.95422456 30.3410799,7.95205741 30.340883,7.94949624 C30.3444273,5.98586231 31.9415335,4.3892646 33.9048852,4.3892646 C35.8696153,4.3892646 37.4680999,5.98802946 37.4690844,7.95383053 C37.4690844,7.95461859 37.4688875,7.95560366 37.4688875,7.9561947 C37.4688875,7.95678574 37.4688875,7.95737678 37.4688875,7.95796782 C37.4675092,9.92337487 35.8694184,11.5217457 33.9048852,11.5217457 C31.9419273,11.5219427 30.3448211,9.92573903 30.3410799,7.96230212 Z M28.1054068,24.9464452 L39.7039698,24.9464452 L39.7039698,32.5222067 L28.1054068,32.5222067 L28.1054068,24.9464452 Z M55.3204038,47.093919 L49.5445542,47.093919 C48.8638495,47.093919 48.2556062,47.4042153 47.8533268,47.8910358 C40.0739566,55.5264924 27.5387108,55.4843315 19.8160495,47.7574606 C19.3627714,47.3039354 18.7610261,47.0931309 18.1675508,47.1195307 L4.3870702,47.1112562 L4.3870702,36.9120624 L25.9122656,36.9120624 L41.8819493,36.9120624 C41.8876596,36.9120624 41.893173,36.9128504 41.8988832,36.9128504 L56.905105,36.9128504 C65.8263343,36.9128504 73.0841,44.1737843 73.0841,53.0986946 L73.0841,58.300246 L62.9081844,58.300246 L62.9081844,54.6838655 C62.9079875,50.4985099 59.5042668,47.093919 55.3204038,47.093919 Z M76.7723501,67.3500628 L59.2173745,67.3500628 L59.2173745,62.6891166 L60.6933834,62.6891166 C60.7006689,62.6891166 60.7073637,62.6902987 60.7146493,62.6902987 C60.7219348,62.6902987 60.7286296,62.6891166 60.7359151,62.6891166 L75.2563692,62.6891166 C75.2636548,62.6891166 75.2703496,62.6902987 75.2776351,62.6902987 C75.2849206,62.6902987 75.2916154,62.6891166 75.298901,62.6891166 L76.7727439,62.6891166 L76.7755006,67.3500628 C76.7753037,67.3498658 76.7743192,67.3500628 76.7723501,67.3500628 Z" id="Shape"></path>
                </g>
            </g>
        </g>
    </g>
</svg>