<?xml version="1.0" encoding="UTF-8"?>
<svg width="361px" height="360px" viewBox="0 0 361 360" version="1.1" xmlns="http://www.w3.org/2000/svg" xmlns:xlink="http://www.w3.org/1999/xlink">
    <!-- Generator: Sketch 58 (84663) - https://sketch.com -->
    <title>Donut Leaf</title>
    <desc>Created with Sketch.</desc>
    <defs>
        <linearGradient x1="15.3417674%" y1="11.6508583%" x2="70.8884063%" y2="56.6688021%" id="linearGradient-1">
            <stop stop-color="#F2971F" offset="0%"></stop>
            <stop stop-color="#F4801F" offset="100%"></stop>
        </linearGradient>
        <path d="M205.436824,16 C285.002573,28.0131121 346,96.6715204 346,179.578328 C346,270.939162 271.888454,345 180.490437,345 C89.0978251,345 15,270.939162 15,179.578328 C15,176.584922 15.0981241,173.627675 15.2644361,170.695783 C16.145474,170.714071 17.0331644,170.763947 17.9399807,170.763947 C48.1913053,170.763947 76.8227508,163.685259 102.249364,151.160084 C99.0274842,160.024757 97.2516876,169.599336 97.2516876,179.578328 C97.2516876,225.518102 134.541337,262.794369 180.490437,262.794369 C226.476126,262.794369 263.735423,225.518102 263.735423,179.578328 C263.735423,133.608629 226.476126,96.3568843 180.490437,96.3568843 C176.410803,96.3568843 172.399773,96.6715204 168.492688,97.2442661 C186.720485,73.8834743 199.643761,46.2233491 205.436824,16 Z M66.4453244,114 L109,119.513793 C83.3488198,136.197906 55.2504837,144.579703 29,145 L29,145 L66.4453244,114 Z M53.7440215,73 L58,108.316322 L23,137 C26.8385361,114.915809 37.3935645,92.6452681 53.7440215,73 Z M100.87876,86 L143,91.4471035 C137.740025,97.2702981 131.971487,102.828528 125.684311,108.029106 L124.499385,109 L80,103.242449 L100.87876,86 Z M86.4504275,44 L91,81.5277226 L69.5374781,99 L65,61.5215161 C71.4850905,55.2541377 78.6366232,49.3732208 86.4504275,44 Z M132.761781,59 L163,62.9132664 C159.460749,69.410018 155.33362,75.7610579 150.699118,81.8595236 L149.824222,83 L110,77.8395642 L132.761781,59 Z M120.538728,25 L124,53.5274862 L101.323474,72 L97,36.3560975 C104.686683,31.8538833 112.593176,28.0848657 120.538728,25 Z M143,51.8217001 L178,23 C176.192313,33.3658254 172.961335,43.76642 168.334815,53.9137665 L167.833778,55 L143,51.8217001 L178,23 Z M172,15 L132.991711,47 L130,22.0443951 C144.104139,17.5295114 158.313397,15.2063106 172,15 Z" id="path-2"></path>
        <filter x="-6.8%" y="-6.8%" width="113.6%" height="113.6%" filterUnits="objectBoundingBox" id="filter-3">
            <feOffset dx="0" dy="0" in="SourceAlpha" result="shadowOffsetOuter1"></feOffset>
            <feGaussianBlur stdDeviation="7.5" in="shadowOffsetOuter1" result="shadowBlurOuter1"></feGaussianBlur>
            <feColorMatrix values="0 0 0 0 0   0 0 0 0 0   0 0 0 0 0  0 0 0 0.05 0" type="matrix" in="shadowBlurOuter1"></feColorMatrix>
        </filter>
    </defs>
    <g id="BDO-Home" stroke="none" stroke-width="1" fill="none" fill-rule="evenodd">
        <g id="Donut-Leaf">
            <use fill="black" fill-opacity="1" filter="url(#filter-3)" xlink:href="#path-2"></use>
            <use fill="url(#linearGradient-1)" fill-rule="evenodd" xlink:href="#path-2"></use>
        </g>
    </g>
</svg>