<?xml version="1.0" encoding="UTF-8"?>
<svg width="81px" height="108px" viewBox="0 0 81 108" version="1.1" xmlns="http://www.w3.org/2000/svg" xmlns:xlink="http://www.w3.org/1999/xlink">
    <!-- Generator: Sketch 58 (84663) - https://sketch.com -->
    <title>map-pin</title>
    <desc>Created with Sketch.</desc>
    <defs>
        <filter x="0.0%" y="0.0%" width="100.0%" height="100.0%" filterUnits="objectBoundingBox" id="filter-1">
            <feGaussianBlur stdDeviation="0" in="SourceGraphic"></feGaussianBlur>
        </filter>
        <filter x="0.0%" y="0.0%" width="100.0%" height="100.0%" filterUnits="objectBoundingBox" id="filter-2">
            <feGaussianBlur stdDeviation="0" in="SourceGraphic"></feGaussianBlur>
        </filter>
    </defs>
    <g id="BDO-Home" stroke="none" stroke-width="1" fill="none" fill-rule="evenodd">
        <g transform="translate(-807.000000, -585.000000)" fill="#C2CCC7" fill-rule="nonzero" id="Group-Copy-16">
            <g transform="translate(598.000000, 563.000000)">
                <g id="map-pin" transform="translate(209.000000, 22.000000)">
                    <path d="M80.7440991,104.195955 L66.5079271,74.0781 C66.2238322,73.4771393 65.7315697,73.0166629 65.1412343,72.7654365 L58.0588975,69.6121331 L70.3306595,49.0419385 C70.359976,48.9925791 70.3876051,48.942587 70.4139688,48.8915401 C72.8537684,44.1287843 74.0909628,38.9821223 74.0909628,33.5954136 C74.0909628,24.5337533 70.5379835,16.03846 64.0864766,9.67468918 C57.6360242,3.31239494 49.0903981,-0.123986445 40.0244585,0.00341975183 C31.2194139,0.125552514 22.9289881,3.66276199 16.6799542,9.96388437 C10.431553,16.2645849 6.96167199,24.5845893 6.90936647,33.391859 C6.87730824,38.7739271 8.14888087,44.1334249 10.5857278,48.8913292 C10.6118806,48.9421651 10.6395097,48.9923682 10.6688261,49.0417276 L22.9403772,69.6117112 L15.817124,72.7823115 C15.2343814,73.0415535 14.7640535,73.5011862 14.4915585,74.0778891 L0.255808372,104.195955 C-0.220635909,105.203181 -0.0196392733,106.400883 0.759459963,107.197594 C1.53834829,107.994305 2.73040808,108.222539 3.74846764,107.769445 L21.5825427,99.8284956 L39.4166177,107.769445 C40.1065023,108.076359 40.8942488,108.076359 41.5841334,107.769445 L59.4182084,99.8284956 L77.2522835,107.769445 C77.6007057,107.924484 77.9695862,108 78.3353031,108 C79.0378422,108 79.7289923,107.721984 80.2412911,107.197805 C81.0197576,106.400883 81.2205434,105.203603 80.7440991,104.195955 Z M15.2906942,46.3864474 C13.2385459,42.3507928 12.2116282,37.9900837 12.2383088,33.4237106 C12.3291047,18.1457247 24.8271725,5.54411277 40.0986986,5.33254254 C47.7264471,5.23002696 54.9178241,8.11670545 60.3445224,13.4696642 C65.7729079,18.8238885 68.7621265,25.9712918 68.7621265,33.5956246 C68.7621265,38.1010368 67.7352088,42.4037381 65.7096351,46.3864474 L42.7884259,84.8082752 C42.0886286,85.9810872 40.9552016,86.1076497 40.5002701,86.1076497 C40.0451277,86.1076497 38.9117007,85.9810872 38.2121143,84.8082752 L15.2906942,46.3864474 Z M60.501439,94.4770134 C59.8115544,94.1700995 59.0238079,94.1700995 58.3339233,94.4770134 L40.4998483,102.417963 L22.6657732,94.4770134 C21.9758887,94.1700995 21.1881421,94.1700995 20.4982576,94.4770134 L8.14360814,99.9782611 L18.8869099,77.2499659 L25.6904246,74.2217484 L33.634959,87.53886 C35.0910773,89.9798278 37.6574226,91.4371944 40.4994265,91.4371944 C43.3414303,91.4371944 45.9077756,89.9798278 47.3638939,87.539071 L55.3084283,74.2217484 L62.1125757,77.2512315 L72.8552448,99.9784721 L60.501439,94.4770134 Z" id="Shape" filter="url(#filter-1)"></path>
                    <path d="M41.0001041,22 C34.3830745,22 29,27.3831212 29,34 C29,40.6168788 34.3830745,46 41.0001041,46 C47.6169255,46 53,40.6168788 53,34 C53,27.3831212 47.6169255,22 41.0001041,22 Z M41.0001041,40.741545 C37.2828377,40.7417531 34.2584094,37.7177148 34.2584094,34 C34.2584094,30.2827014 37.2826296,27.258455 41.0001041,27.258455 C44.7173704,27.258455 47.7415906,30.2827014 47.7415906,34 C47.7415906,37.7172986 44.7173704,40.741545 41.0001041,40.741545 Z" id="Shape" filter="url(#filter-2)"></path>
                </g>
            </g>
        </g>
    </g>
</svg>