<?xml version="1.0" encoding="UTF-8"?>
<svg width="140px" height="140px" viewBox="0 0 140 140" version="1.1" xmlns="http://www.w3.org/2000/svg" xmlns:xlink="http://www.w3.org/1999/xlink">
    <!-- Generator: Sketch 59.1 (86144) - https://sketch.com -->
    <title>money-transfer</title>
    <desc>Created with Sketch.</desc>
    <g id="BDO-Home" stroke="none" stroke-width="1" fill="none" fill-rule="evenodd">
        <g transform="translate(-1034.000000, -1160.000000)" fill="#C2CCC7" fill-rule="nonzero" id="Group-Copy-10">
            <g transform="translate(940.000000, 1140.000000)">
                <g id="money-transfer" transform="translate(94.000000, 20.000000)">
                    <path d="M82.201009,60.7270507 L42.5343424,51.3937174 C42.1822917,51.3128257 41.8177083,51.3128257 41.4656576,51.3937174 L1.79899096,60.7270507 C0.743977792,60.9754233 -0.00113932292,61.9165038 -1.30476252e-06,63 L-1.30476252e-06,77 C-1.30476252e-06,78.2885743 1.04475904,79.3333333 2.33333333,79.3333333 L6.9999987,79.3333333 L6.9999987,116.666667 C5.71142571,116.666667 4.66666667,117.711426 4.66666667,119 L4.66666667,126 L2.33333333,126 C1.04475904,126 -1.30476252e-06,127.044759 -1.30476252e-06,128.333333 L-1.30476252e-06,137.666667 C-1.30476252e-06,138.955241 1.04475904,140 2.33333333,140 L81.6666667,140 C82.955241,140 83.9999987,138.955241 83.9999987,137.666667 L83.9999987,128.333333 C83.9999987,127.044759 82.955241,126 81.6666667,126 L79.3333333,126 L79.3333333,119 C79.3333333,117.711426 78.2885743,116.666667 76.9999987,116.666667 L76.9999987,79.3333333 L81.6666667,79.3333333 C82.955241,79.3333333 83.9999987,78.2885743 83.9999987,77 L83.9999987,63 C84.0011392,61.9165038 83.2560222,60.9754233 82.201009,60.7270507 Z M11.6666667,79.3333333 L16.3333333,79.3333333 L16.3333333,116.666667 L11.6666667,116.666667 L11.6666667,79.3333333 Z M63,79.3333333 L63,116.666667 L21,116.666667 L21,79.3333333 L63,79.3333333 Z M79.3333333,135.333333 L4.66666667,135.333333 L4.66666667,130.666667 L79.3333333,130.666667 L79.3333333,135.333333 Z M9.33333333,126 L9.33333333,121.333333 L74.6666667,121.333333 L74.6666667,126 L9.33333333,126 Z M72.3333333,116.666667 L67.6666667,116.666667 L67.6666667,79.3333333 L72.3333333,79.3333333 L72.3333333,116.666667 Z M79.3333333,74.6666667 L4.66666667,74.6666667 L4.66666667,64.8479819 L42,56.0626628 L79.3333333,64.8479819 L79.3333333,74.6666667 Z" id="Shape"></path>
                    <path d="M35,65.3333333 C35,69.1990559 38.1342774,72.3333333 42,72.3333333 C45.8657226,72.3333333 49,69.1990559 49,65.3333333 C49,61.4676108 45.8657226,58.3333333 42,58.3333333 C38.1342774,58.3333333 35,61.4676108 35,65.3333333 Z M44.3333333,65.3333333 C44.3333333,66.6219076 43.2885743,67.6666667 42,67.6666667 C40.7114257,67.6666667 39.6666667,66.6219076 39.6666667,65.3333333 C39.6666667,64.044759 40.7114257,63 42,63 C43.2885743,63 44.3333333,64.044759 44.3333333,65.3333333 Z" id="Shape"></path>
                    <path d="M39.6666667,100.333333 L44.3333333,100.333333 C45.6219076,100.333333 46.6666667,101.378092 46.6666667,102.666667 C46.6666667,103.955241 45.6219076,105 44.3333333,105 L39.6666667,105 C38.3780924,105 37.3333333,103.955241 37.3333333,102.666667 L32.6666667,102.666667 C32.6666667,106.532389 35.8009441,109.666667 39.6666667,109.666667 L39.6666667,112 L44.3333333,112 L44.3333333,109.666667 C48.1990559,109.666667 51.3333333,106.532389 51.3333333,102.666667 C51.3333333,98.8009441 48.1990559,95.6666667 44.3333333,95.6666667 L39.6666667,95.6666667 C38.3780924,95.6666667 37.3333333,94.6219076 37.3333333,93.3333333 C37.3333333,92.044759 38.3780924,91 39.6666667,91 L44.3333333,91 C45.6219076,91 46.6666667,92.044759 46.6666667,93.3333333 L51.3333333,93.3333333 C51.3333333,89.4676107 48.1990559,86.3333333 44.3333333,86.3333333 L44.3333333,84 L39.6666667,84 L39.6666667,86.3333333 C35.8009441,86.3333333 32.6666667,89.4676107 32.6666667,93.3333333 C32.6666667,97.1990559 35.8009441,100.333333 39.6666667,100.333333 Z" id="Path"></path>
                    <path d="M102.666667,9.33333333 C97.5123698,9.33333333 93.3333333,13.5123698 93.3333333,18.6666667 C93.3333333,23.8209635 97.5123698,28 102.666667,28 C107.820964,28 112,23.8209635 112,18.6666667 C112,13.5123698 107.820964,9.33333333 102.666667,9.33333333 Z M102.666667,23.3333333 C100.089518,23.3333333 98,21.2438152 98,18.6666667 C98,16.0895181 100.089518,14 102.666667,14 C105.243815,14 107.333333,16.0895181 107.333333,18.6666667 C107.333333,21.2438152 105.243815,23.3333333 102.666667,23.3333333 Z" id="Shape"></path>
                    <path d="M135.333333,0 L70,0 C67.4228514,0 65.3333333,2.08951808 65.3333333,4.66666667 L65.3333333,32.6666667 C65.3333333,35.2438153 67.4228514,37.3333333 70,37.3333333 L135.333333,37.3333333 C137.910482,37.3333333 140,35.2438153 140,32.6666667 L140,4.66666667 C140,2.08951808 137.910482,0 135.333333,0 Z M123.876302,32.6666667 L81.4570312,32.6666667 C80.4544271,26.8037111 75.8629556,22.2122396 70,21.2096354 L70,16.1236979 C75.8629556,15.122233 80.4555663,10.5296222 81.4570312,4.66666667 L123.876302,4.66666667 C124.877767,10.5296222 129.470378,15.122233 135.333333,16.1236979 L135.333333,21.2096354 C129.470378,22.2122396 124.878906,26.8037111 123.876302,32.6666667 Z M135.333333,11.3727215 C132.048665,10.5159507 129.484049,7.95133471 128.627278,4.66666667 L135.333333,4.66666667 L135.333333,11.3727215 Z M70,4.66666667 L76.7060548,4.66666667 C75.8504232,7.95133471 73.284668,10.5170899 70,11.3727215 L70,4.66666667 Z M70,32.6666667 L70,25.9606118 C73.284668,26.8162434 75.8504232,29.3819986 76.7060548,32.6666667 L70,32.6666667 Z M135.333333,32.6666667 L128.627278,32.6666667 C129.48291,29.3819986 132.048665,26.8162434 135.333333,25.9606118 L135.333333,32.6666667 Z" id="Shape"></path>
                    <polygon id="Path" points="88.6666667 107.333333 93.3333333 107.333333 93.3333333 112 88.6666667 112"></polygon>
                    <polygon id="Path" points="98 107.333333 102.666667 107.333333 102.666667 112 98 112"></polygon>
                    <polygon id="Path" points="107.333333 107.333333 112 107.333333 112 112 107.333333 112"></polygon>
                    <polygon id="Path" points="107.333333 98 112 98 112 102.666667 107.333333 102.666667"></polygon>
                    <polygon id="Path" points="107.333333 88.6666667 112 88.6666667 112 93.3333333 107.333333 93.3333333"></polygon>
                    <polygon id="Path" points="107.333333 79.3333333 112 79.3333333 112 84 107.333333 84"></polygon>
                    <polygon id="Path" points="107.333333 70 112 70 112 74.6666667 107.333333 74.6666667"></polygon>
                    <polygon id="Path" points="107.333333 60.6666667 112 60.6666667 112 65.3333333 107.333333 65.3333333"></polygon>
                    <polygon id="Path" points="107.333333 51.3333333 112 51.3333333 112 56 107.333333 56"></polygon>
                    <polygon id="Path" points="107.333333 42 112 42 112 46.6666667 107.333333 46.6666667"></polygon>
                    <polygon id="Path" points="56 14 60.6666667 14 60.6666667 18.6666667 56 18.6666667"></polygon>
                    <polygon id="Path" points="46.6666667 14 51.3333333 14 51.3333333 18.6666667 46.6666667 18.6666667"></polygon>
                    <polygon id="Path" points="37.3333333 14 42 14 42 18.6666667 37.3333333 18.6666667"></polygon>
                    <polygon id="Path" points="37.3333333 23.3333333 42 23.3333333 42 28 37.3333333 28"></polygon>
                    <polygon id="Path" points="37.3333333 32.6666667 42 32.6666667 42 37.3333333 37.3333333 37.3333333"></polygon>
                    <polygon id="Path" points="37.3333333 42 42 42 42 46.6666667 37.3333333 46.6666667"></polygon>
                </g>
            </g>
        </g>
    </g>
</svg>