<?xml version="1.0" encoding="UTF-8"?>
<svg width="98px" height="125px" viewBox="0 0 98 125" version="1.1" xmlns="http://www.w3.org/2000/svg" xmlns:xlink="http://www.w3.org/1999/xlink">
    <!-- Generator: Sketch 57.1 (83088) - https://sketch.com -->
    <title>passport</title>
    <desc>Created with Sketch.</desc>
    <g id="Design" stroke="none" stroke-width="1" fill="none" fill-rule="evenodd">
        <g id="BDO-Home" transform="translate(-680.000000, -2307.000000)" fill="#C2CCC7" fill-rule="nonzero">
            <g id="Group-Copy" transform="translate(476.000000, 2294.000000)">
                <g id="passport" transform="translate(204.000000, 13.000000)">
                    <path d="M38.5,36 C24.4168281,36 13,47.4168281 13,61.5 C13,75.5831719 24.4168281,87 38.5,87 C52.5831719,87 64,75.5831719 64,61.5 C64,47.4168281 52.5831719,36 38.5,36 Z M57.3718594,51.9375 L48.1817656,51.9375 C47.3028125,47.5334375 45.9300625,43.9737969 44.5283594,41.2275 C50.1442031,42.9033281 54.754125,46.7973906 57.3718594,51.9375 Z M44.875,61.5 C44.875,63.3970938 44.7328906,65.1398594 44.5376563,66.8125 L32.4631406,66.8125 C32.2671094,65.1398594 32.1247344,63.3968281 32.1247344,61.5 C32.1247344,59.6021094 32.2647188,57.8596094 32.4588906,56.1875 L44.5419063,56.1875 C44.7350156,57.8596094 44.875,59.602375 44.875,61.5 Z M37.881625,40.3121563 C38.0912031,40.3060469 38.2882969,40.25 38.5,40.25 C38.7138281,40.25 38.9117188,40.3071094 39.1244844,40.3132187 C40.7192969,42.7598906 42.658625,46.6303125 43.8329531,51.9375 L33.1675781,51.9375 C34.3474844,46.6119844 36.2939844,42.7434219 37.881625,40.3121563 Z M32.4716406,41.2275 C31.0749844,43.9679531 29.7011719,47.5315781 28.8214219,51.9375 L19.6281406,51.9375 C22.2461406,46.7973906 26.8560625,42.9043906 32.4716406,41.2275 Z M17.25,61.5 C17.25,59.6549688 17.56025,57.8954688 18.004375,56.1875 L28.1759531,56.1875 C27.9985156,57.8705 27.875,59.6209688 27.875,61.5 C27.875,63.3800938 28.0017031,65.1284375 28.1820625,66.8125 L18.004375,66.8125 C17.56025,65.1045313 17.25,63.3450313 17.25,61.5 Z M19.6281406,71.0625 L28.8317813,71.0625 C29.7200313,75.4763906 31.0946406,79.0665781 32.4655313,81.7706406 C26.852875,80.09375 22.2450781,76.20075 19.6281406,71.0625 Z M39.1173125,82.6878438 C38.9077344,82.6942188 38.7117031,82.75 38.5,82.75 C38.2882969,82.75 38.0922656,82.6939531 37.881625,82.6878438 C36.3585313,80.3450313 34.3745781,76.4658438 33.1731563,71.0625 L43.827375,71.0625 C42.6275469,76.4623906 40.6457188,80.3397188 39.1173125,82.6878438 Z M44.5365938,81.7706406 C45.9093438,79.0639219 47.2831563,75.4766563 48.1692813,71.0625 L57.3718594,71.0625 C54.7549219,76.2002188 50.1479219,80.0929531 44.5365938,81.7706406 Z M48.819,66.8125 C48.9985625,65.1284375 49.125,63.3800938 49.125,61.5 C49.125,59.6209688 49.0025469,57.8705 48.8251094,56.1875 L58.995625,56.1875 C59.43975,57.8954688 59.75,59.6552344 59.75,61.5 C59.75,63.3450313 59.43975,65.1045313 58.995625,66.8125 L48.819,66.8125 Z" id="Shape"></path>
                    <rect id="Rectangle" x="17" y="100" width="43" height="4"></rect>
                    <polygon id="Rectangle" transform="translate(90.661914, 73.517068) rotate(-74.995137) translate(-90.661914, -73.517068) " points="86.403407 71.3774596 94.9162485 71.3858058 94.9204215 75.6566769 86.4075801 75.6483307"></polygon>
                    <polygon id="Rectangle" transform="translate(83.474309, 100.225408) rotate(-75.000671) translate(-83.474309, -100.225408) " points="68.5755377 98.0754268 98.3689078 98.1046272 98.3730794 102.375389 68.5797093 102.346188"></polygon>
                    <path d="M113.644426,13.5324083 L63.9687673,0.292537886 C63.2257324,0.0945819213 62.4794832,0 61.7452876,0 C57.9607383,0 54.4976172,2.51241554 53.4711898,6.32126948 L48.9910163,22.9533005 L4.28570946,22.9533005 C1.91892641,22.9533005 0,24.8617239 0,27.2161477 L0,112.473091 C0,114.827515 1.91892641,116.735938 4.28570946,116.735938 L53.7859216,116.735938 L83.6958879,124.707462 C84.4389228,124.905418 85.1846362,125 85.9193676,125 C89.7039169,125 93.167038,122.487584 94.1934654,118.678731 L119.705758,23.973986 C120.931203,19.4260609 118.21701,14.7510497 113.644426,13.5324083 Z M4.28570946,112.473091 L4.28570946,27.2161477 L68.5713514,27.2161477 C70.9349201,27.2161477 72.8570608,29.1285675 72.8570608,31.4789948 L72.8570608,108.210244 C72.8570608,110.560671 70.9349201,112.473091 68.5713514,112.473091 L4.28570946,112.473091 Z M115.566566,22.8707078 L90.0542736,117.575452 C89.552042,119.437251 87.8519547,120.737419 85.9190997,120.737419 C85.5467787,120.737419 85.172047,120.687864 84.8048152,120.589818 L69.8602785,116.60672 C73.9772382,115.984611 77.1425024,112.479751 77.1425024,108.21051 L77.1425024,74.4157235 L79.3375893,75.0007993 L81.5567832,66.7655114 L77.41652,65.6622333 L77.1425024,66.6810538 L77.1425024,32.8050067 C78.4785724,33.1612209 80.0208921,33.5723192 81.516069,33.9708954 L86.5844561,50.4526611 L90.1324878,51.3984803 L89.7965953,36.1777181 C92.126682,36.7990281 94.5060543,37.4328602 96.0649811,37.8484878 L98.8198888,42.6806914 L101.1856,43.31106 L100.778726,36.582955 L104.513186,30.9583946 L102.147474,30.3280261 L97.3332833,33.1428374 C95.773285,32.7274762 93.3949842,32.0933777 91.0638261,31.4720677 L99.0063171,18.4581282 L95.4582854,17.512309 L82.7841032,29.2655114 C80.2916953,28.6013066 77.5724127,27.8760897 76.0992,27.4839078 C74.6554517,24.7999126 71.8440263,22.9535669 68.5710835,22.9535669 L53.4267256,22.9535669 L57.6098459,7.42508046 C58.1120774,5.56354839 59.8124327,4.26311358 61.7450198,4.26311358 C62.1173408,4.26311358 62.4920725,4.31266918 62.8593042,4.41071467 L112.53523,17.6505851 C113.641211,17.9452544 114.56505,18.6507556 115.13746,19.6368054 C115.710138,20.6225888 115.862548,21.7711597 115.566566,22.8707078 Z" id="Shape"></path>
                    <polygon id="Rectangle" transform="translate(90.076151, 60.199741) rotate(-75.178570) translate(-90.076151, -60.199741) " points="87.9459787 58.0985837 92.2022675 58.1027103 92.206324 62.3008988 87.9500352 62.2967722"></polygon>
                    <polygon id="Rectangle" transform="translate(98.184200, 62.345480) rotate(-75.178570) translate(-98.184200, -62.345480) " points="96.0541602 60.2443222 100.310183 60.2484486 100.31424 64.4466371 96.0582167 64.4425107"></polygon>
                    <polygon id="Rectangle" transform="translate(81.968590, 58.060633) rotate(-75.178570) translate(-81.968590, -58.060633) " points="79.83855 55.9594753 84.0945729 55.9636016 84.0986293 60.1617901 79.8426065 60.1576638"></polygon>
                </g>
            </g>
        </g>
    </g>
</svg>