<?xml version="1.0" encoding="UTF-8"?>
<svg width="103px" height="103px" viewBox="0 0 103 103" version="1.1" xmlns="http://www.w3.org/2000/svg" xmlns:xlink="http://www.w3.org/1999/xlink">
    <!-- Generator: Sketch 58 (84663) - https://sketch.com -->
    <title>telephone-3</title>
    <desc>Created with Sketch.</desc>
    <g id="BDO-Home" stroke="none" stroke-width="1" fill="none" fill-rule="evenodd">
        <g transform="translate(-861.000000, -3507.000000)" fill="#C2CCC7" fill-rule="nonzero" id="Group-Copy-7">
            <g transform="translate(678.000000, 3482.000000)">
                <g id="telephone-3" transform="translate(183.000000, 25.000000)">
                    <path d="M20.8724862,68.4674679 C31.0701353,80.6114795 43.3458767,90.1730211 57.3569323,96.9386656 C62.6914168,99.4571073 69.8254864,102.445089 77.773654,102.957315 C78.2663976,102.978657 78.7377175,103 79.230461,103 C84.5649455,103 88.849672,101.164525 92.3417241,97.3868628 C92.3631477,97.3655201 92.405995,97.3228346 92.4274186,97.2801492 C93.6699893,95.7861583 95.083949,94.4415665 96.5621797,93.0116038 C97.5690904,92.0511811 98.5974248,91.0480729 99.5829119,90.023622 C104.146146,85.2855367 104.146146,79.2668877 99.5400646,74.6782014 L86.6644615,61.8512225 C84.479251,59.5888935 81.8655678,58.3937008 79.1233429,58.3937008 C76.3811179,58.3937008 73.7460111,59.5888935 71.4965297,61.8298798 L63.8268693,69.470576 C63.1198894,69.0650642 62.3914859,68.7022379 61.7059297,68.3607542 C60.8489844,67.9338997 60.05631,67.5283879 59.3493301,67.0801906 C52.3652259,62.6622462 46.0238307,56.8997099 39.9609427,49.4937837 C36.8973633,45.6307501 34.8406946,42.3866556 33.4053112,39.0785329 C35.4191327,37.2644012 37.3044123,35.3648985 39.1254211,33.5080812 C39.7681301,32.8464567 40.4322627,32.1848322 41.0963953,31.5232076 C43.4101476,29.2181931 44.6527183,26.5503523 44.6527183,23.8398259 C44.6527183,21.1292996 43.4315712,18.4614588 41.0963953,16.1564443 L34.7121528,9.79631165 C33.9623257,9.0493162 33.2553458,8.32366349 32.5269423,7.57666805 C31.1129825,6.12536262 29.6347519,4.63137174 28.1779449,3.28677994 C25.9713108,1.13116453 23.3790512,0 20.6368263,0 C17.916025,0 15.3023418,1.13116453 13.0100131,3.30812267 L4.99757459,11.2903025 C2.08396057,14.1929134 0.434340876,17.7144633 0.0915627566,21.7909242 C-0.31548626,26.8918359 0.627153568,32.3128885 3.06944767,38.8651057 C6.81858335,49.002901 12.4744223,58.4150435 20.8724862,68.4674679 Z M5.31892907,22.2391214 C5.57601266,19.4005387 6.66861792,17.0314961 8.72528663,14.9825943 L16.6948779,7.04309988 C17.9374486,5.84790717 19.3085611,5.22896809 20.6368263,5.22896809 C21.9436679,5.22896809 23.2719331,5.84790717 24.4930801,7.08578533 C25.9284635,8.4090344 27.2781523,9.79631165 28.7349593,11.2689598 C29.4633628,12.0159552 30.21319,12.7629507 30.9630171,13.5312889 L37.3472596,19.8914215 C38.6755248,21.2146705 39.361081,22.5592623 39.361081,23.8825114 C39.361081,25.2057605 38.6755248,26.5503523 37.3472596,27.8736013 C36.683127,28.5352259 36.0189944,29.2181931 35.3548618,29.8798177 C33.362464,31.886034 31.4986079,33.7855367 29.4419392,35.5996685 C29.3990919,35.6423539 29.3776683,35.6636966 29.3348211,35.7063821 C27.5566596,37.4778284 27.8351668,39.1639039 28.2636394,40.4444675 C28.2850631,40.5084956 28.3064867,40.5511811 28.3279103,40.6152093 C29.97753,44.5636138 32.2698587,48.3199337 35.8476053,52.8019063 C42.2746951,60.6987153 49.0445629,66.8240779 56.499987,71.5408206 C57.4212032,72.1384169 58.4066903,72.6079569 59.3279065,73.0774969 C60.1848518,73.5043514 60.9775262,73.9098632 61.684506,74.3580605 C61.7702006,74.400746 61.8344715,74.4434314 61.920166,74.4861169 C62.6271459,74.8489432 63.3127021,75.019685 63.9982584,75.019685 C65.712149,75.019685 66.8261778,73.931206 67.1903796,73.5683796 L75.2028181,65.5861998 C76.4453888,64.3483216 77.7950777,63.6866971 79.1233429,63.6866971 C80.7515389,63.6866971 82.0798041,64.6898052 82.9153258,65.5861998 L95.8337762,78.4345213 C98.4046121,80.9956486 98.3831884,83.7702031 95.7695053,86.4807294 C94.8697127,87.4411521 93.9270729,88.3588893 92.9201622,89.3193121 C91.4205079,90.7706175 89.8565827,92.2646084 88.442623,93.9506838 C85.9789052,96.5971819 83.0438676,97.8350601 79.2518847,97.8350601 C78.8876829,97.8350601 78.5020575,97.8137174 78.1378558,97.7923746 C71.1109043,97.3441774 64.5766964,94.6123083 59.6706846,92.2859511 C46.3451852,85.8617903 34.6478819,76.7484459 24.9429764,65.1806879 C16.9519615,55.5978036 11.5746297,46.6765437 8.01830676,37.1150021 C5.81167262,31.2457522 4.97615096,26.5290095 5.31892907,22.2391214 Z" id="Shape"></path>
                </g>
            </g>
        </g>
    </g>
</svg>