<?xml version="1.0" encoding="UTF-8"?>
<svg width="116px" height="150px" viewBox="0 0 116 150" version="1.1" xmlns="http://www.w3.org/2000/svg" xmlns:xlink="http://www.w3.org/1999/xlink">
    <!-- Generator: Sketch 59.1 (86144) - https://sketch.com -->
    <title>piggy-bank</title>
    <desc>Created with Sketch.</desc>
    <g id="BDO-Home" stroke="none" stroke-width="1" fill="none" fill-rule="evenodd">
        <g transform="translate(-202.000000, -1160.000000)" fill="#C2CCC7" fill-rule="nonzero" id="Group-Copy-3">
            <g transform="translate(100.000000, 1140.000000)">
                <g id="piggy-bank" transform="translate(159.857143, 95.000000) scale(-1, 1) translate(-159.857143, -95.000000) translate(102.000000, 20.000000)">
                    <path d="M91.6927318,129.746459 L92.4559803,129.072362 C92.5781001,128.98044 92.6696899,128.888518 92.7612797,128.765955 C93.158169,128.306343 102.072912,117.980408 105.461735,110.044452 L107.079822,110.044452 C111.689843,110.044452 115.445026,106.275638 115.445026,101.648884 L115.445026,88.3814356 C115.445026,83.7546811 111.689843,79.9858679 107.079822,79.9858679 L105.278556,79.9858679 C102.500331,72.7240082 97.7681901,66.166886 91.4790222,60.8353941 C90.563124,57.556833 91.2347827,54.0637866 93.5245283,50.4175364 C94.8067858,48.3646056 94.8067858,45.7907819 93.4939983,43.7378511 C92.1812109,41.6849203 89.8914653,40.581853 87.4795999,40.8882606 C78.6564468,41.9913279 73.374767,46.0052672 70.2912429,49.7434397 C67.3908985,48.94678 64.3989642,48.3339648 61.3765,47.9969165 C59.7278832,47.8130719 58.2013861,48.9774207 58.0182065,50.6626624 C57.8350268,52.3172634 58.9951646,53.8493013 60.6743114,54.0331458 C64.0326049,54.4314757 67.3603685,55.1668539 70.5354824,56.1779989 C71.81774,56.5763287 73.1915873,56.0860766 73.9548359,54.9830093 C76.0308719,51.8882927 80.2134738,47.9662757 88.2123185,46.9551307 C88.2733784,46.9551307 88.3344382,46.9551307 88.3954981,47.047053 C88.456558,47.1389752 88.4260281,47.2002568 88.3954981,47.2308975 C85.2203842,52.3172634 84.273956,57.6181145 85.6783333,62.5819173 C85.7088633,63.4704993 86.1057525,64.2977997 86.8079412,64.8493334 C93.2497588,70.0582623 97.9208398,76.676666 100.302175,83.9998072 C100.699064,85.2560783 101.889732,86.0833787 103.17199,86.0833787 L103.17199,86.0833787 L107.079822,86.0833787 C108.36208,86.0833787 109.400098,87.1251645 109.400098,88.4120763 L109.400098,101.679525 C109.400098,102.966436 108.36208,104.008222 107.079822,104.008222 L103.385699,104.008222 C102.072912,104.008222 100.882244,104.866163 100.485355,106.153075 C98.7756782,111.760334 91.2653126,121.258969 88.3344382,124.660093 L87.6627795,125.242267 C81.3736116,130.941448 80.7324828,137.682415 80.7019529,139.704705 L80.7019529,143.963771 L63.2693564,143.963771 L63.2693564,139.857909 C63.2693564,138.999968 62.9029971,138.172667 62.2618683,137.590493 C61.6207396,137.008319 60.7659012,136.732552 59.9110628,136.824474 C55.4536914,137.284085 50.96579,137.222804 46.6305383,136.640629 C45.7757,136.518066 44.8903317,136.793833 44.2492029,137.376008 C43.5775442,137.958182 43.2111849,138.785483 43.2111849,139.674065 L43.2111849,143.93313 L25.7785884,143.93313 L25.7785884,142.73814 C25.7785884,142.7075 25.7785884,142.646218 25.7785884,142.615577 C25.6259387,139.398298 24.6184506,131.247856 18.2682228,124.690734 C15.2762886,121.596017 12.5896537,117.490156 10.2693782,112.526353 C10.2388482,112.495712 10.2388482,112.465071 10.2083183,112.40379 C8.83447094,109.768685 7.79645293,106.980376 7.09426428,104.038863 L7.06373434,103.9163 C7.06373434,103.885659 7.0332044,103.855018 7.0332044,103.824378 C5.93412651,100.147487 6.05624628,95.5207322 6.05624628,95.4900914 C6.05624628,95.4594507 6.05624628,95.4288099 6.05624628,95.3981692 C6.05624628,93.3758791 6.23942592,91.3229483 6.54472534,89.3312991 C6.81949481,87.6766981 5.72041692,86.1140195 4.07180009,85.8382527 C2.42318325,85.5624858 0.866156245,86.6655531 0.591386773,88.3201541 C0.194497535,90.6182109 0.0113178869,92.9775493 0.0113178869,95.3368876 C-0.0192120545,95.9497028 -0.0802719372,101.09735 1.23251554,105.54026 L1.23251554,105.54026 C2.02629402,108.818821 3.24749167,112.036101 4.80451868,115.100177 C7.36903376,120.676795 10.4525578,125.303549 13.9024412,128.888518 C18.7567019,133.913602 19.5810103,140.225598 19.7031301,142.799422 L19.7031301,144.055693 C19.7031301,144.178256 19.7031301,144.270178 19.73366,144.454023 C19.9473696,147.548739 22.5424146,150 25.6259387,150 L43.3027747,150 C46.5694785,150 49.2255834,147.334254 49.2255834,144.055693 L49.2255834,143.044548 C51.8816883,143.259033 54.5072632,143.289674 57.1938981,143.167111 L57.1938981,144.055693 C57.1938981,147.334254 59.850003,150 63.1167067,150 L80.7935427,150 C84.0602465,150 86.7163514,147.334254 86.7163514,144.055693 L86.7163514,139.735346 C86.7774112,138.785483 87.1132406,133.882961 91.6927318,129.746459 Z" id="Path"></path>
                    <path d="M0,58.5078534 C0,72.1366396 11.0790801,83.2460733 24.7382199,83.2460733 C38.3670061,83.2460733 49.4764398,72.1669932 49.4764398,58.5078534 C49.4764398,44.8790672 38.3973597,33.7696335 24.7382199,33.7696335 C11.1094337,33.7696335 0,44.8487136 0,58.5078534 Z M43.4664183,58.5078534 C43.4664183,68.8280924 35.0584589,77.2360518 24.7382199,77.2360518 C14.4179809,77.2360518 6.01002152,68.8280924 6.01002152,58.5078534 C6.01002152,48.1876144 14.4179809,39.779655 24.7382199,39.779655 C35.0584589,39.779655 43.4664183,48.1876144 43.4664183,58.5078534 Z" id="Shape"></path>
                    <path d="M70.6806283,17.2774869 C70.6806283,7.75661824 62.92401,0 53.4031414,0 C43.8822727,0 36.1256545,7.75661824 36.1256545,17.2774869 C36.1256545,26.7983556 43.8822727,34.5549738 53.4031414,34.5549738 C62.92401,34.5549738 70.6806283,26.7983556 70.6806283,17.2774869 Z M42.1180223,17.2774869 C42.1180223,11.0721923 47.1674287,6.02278593 53.3727233,6.02278593 C59.5780178,6.02278593 64.6274242,11.0721923 64.6274242,17.2774869 C64.6274242,23.4827815 59.5780178,28.5321879 53.3727233,28.5321879 C47.1674287,28.5321879 42.1180223,23.4827815 42.1180223,17.2774869 Z" id="Shape"></path>
                </g>
            </g>
        </g>
    </g>
</svg>