<?xml version="1.0" encoding="UTF-8"?>
<svg width="98px" height="119px" viewBox="0 0 98 119" version="1.1" xmlns="http://www.w3.org/2000/svg" xmlns:xlink="http://www.w3.org/1999/xlink">
    <!-- Generator: Sketch 58 (84663) - https://sketch.com -->
    <title>propiedades</title>
    <desc>Created with Sketch.</desc>
    <g id="BDO-Home" stroke="none" stroke-width="1" fill="none" fill-rule="evenodd">
        <g transform="translate(-794.000000, -754.000000)" fill="#C2CCC7" fill-rule="nonzero" id="Group-Copy-21">
            <g transform="translate(598.000000, 737.000000)">
                <g id="propiedades" transform="translate(196.000000, 17.000000)">
                    <path d="M50,87.5715955 L50,118.232559 L91.1431909,118.232559 L91.1431909,87.5715955 L70.5715955,67 L50,87.5715955 Z M75.1430611,113.661093 L66.0001298,113.661093 L66.0001298,97.660963 L75.1430611,97.660963 L75.1430611,113.661093 Z M86.5717253,113.661093 L79.7145268,113.661093 L79.7145268,93.0894974 L61.4286642,93.0894974 L61.4286642,113.661093 L54.5714657,113.661093 L54.5714657,89.464468 L70.5715955,73.4643382 L86.5717253,89.464468 L86.5717253,113.661093 Z" id="Shape"></path>
                    <path d="M74,0 C60.7660161,0 50,10.7660161 50,24 C50,37.2339858 60.7660161,48 74,48 C87.2339858,48 98,37.2339858 98,24 C98,10.7660161 87.2339858,0 74,0 Z M74.000001,43.2000017 C63.4132819,43.2000017 54.8000002,34.58672 54.8000002,24.000001 C54.8000002,13.4132819 63.4132819,4.80000019 74.000001,4.80000019 C84.58672,4.80000019 93.2000017,13.4132819 93.2000017,24.000001 C93.2000017,34.58672 84.58672,43.2000017 74.000001,43.2000017 Z" id="Shape"></path>
                    <path d="M76.2096989,33.6561288 C78.5604913,32.8303246 80.25,30.6076062 80.25,27.999721 C80.25,24.6918161 77.5306879,21.9995536 74.1895484,21.9995536 C73.0753091,21.9995536 72.1693978,21.1026536 72.1693978,19.9994978 C72.1693978,18.8971232 73.0753091,17.999442 74.1895484,17.999442 C74.9052814,17.999442 75.6604705,18.3611709 76.3738361,19.0455648 C77.1763725,19.813555 78.454749,19.7924608 79.2304553,18.9986887 C80.0061616,18.2049165 79.9856443,16.9384748 79.1838971,16.1704846 C78.1588286,15.188426 77.1329707,14.6329417 76.2096989,14.3298084 L76.2096989,12.0000558 C76.2096989,10.8953374 75.3045767,10 74.1895484,10 C73.0737307,10 72.1693978,10.8953374 72.1693978,12.0000558 L72.1693978,14.3438712 C69.8178163,15.1696754 68.1290967,17.3923938 68.1290967,20.000279 C68.1290967,23.3081837 70.8476196,26.0004464 74.1895484,26.0004464 C75.3029986,26.0004464 76.2096989,26.8973464 76.2096989,28.0005022 C76.2096989,29.1028768 75.3029986,30.000558 74.1895484,30.000558 C73.3262496,30.000558 72.3942973,29.463043 71.5665091,28.4872346 C70.8484089,27.6418984 69.5739779,27.5325204 68.7201485,28.2434778 C67.8663194,28.954435 67.7558424,30.2154078 68.4739427,31.0615252 C69.5534606,32.3334355 70.823157,33.2193978 72.1693978,33.6662853 L72.1693978,35.9999442 C72.1693978,37.1046624 73.0737307,38 74.1895484,38 C75.3045767,38 76.2096989,37.1046624 76.2096989,35.9999442 L76.2096989,33.6561288 Z" id="Path"></path>
                    <path d="M47.3586431,58.3182127 L41.5550246,44.7745762 C40.8318044,43.0904106 39.1844696,42 37.3507493,42 L12.9353729,42 C11.1016526,42 9.45431785,43.0904106 8.73332971,44.7723439 L2.92747918,58.3182127 C1.22099219,58.9811646 4.97379915e-14,60.6307314 4.97379915e-14,62.5715955 L4.97379915e-14,67.1430611 C4.97379915e-14,69.664287 2.05023978,71.7145268 4.57146566,71.7145268 L4.57146566,74.0002596 C4.57146566,77.7804243 7.64849948,80.8574581 11.4286642,80.8574581 C15.2088288,80.8574581 18.2858626,77.7804243 18.2858626,74.0002596 L18.2858626,71.7145268 L32.0002596,71.7145268 L32.0002596,74.0002596 C32.0002596,77.7804243 35.0772934,80.8574581 38.8574581,80.8574581 C42.6376228,80.8574581 45.7146566,77.7804243 45.7146566,74.0002596 L45.7146566,71.7145268 C48.2358825,71.7145268 50.2861223,69.664287 50.2861223,67.1430611 L50.2861223,62.5715955 C50.2861223,60.6307314 49.0651301,58.9811646 47.3586431,58.3182127 L47.3586431,58.3182127 Z M12.9353729,46.5714657 L37.3507493,46.5714657 L42.2492268,58.0001298 L8.03689549,58.0001298 L12.9353729,46.5714657 Z M13.714397,74.0002596 C13.714397,75.2614304 12.689835,76.2859925 11.4286642,76.2859925 C10.1674933,76.2859925 9.14293132,75.2614304 9.14293132,74.0002596 L9.14293132,71.7145268 L13.714397,71.7145268 L13.714397,74.0002596 Z M41.1431909,74.0002596 C41.1431909,75.2614304 40.1186289,76.2859925 38.8574581,76.2859925 C37.5962873,76.2859925 36.5717253,75.2614304 36.5717253,74.0002596 L36.5717253,71.7145268 L41.1431909,71.7145268 L41.1431909,74.0002596 Z M4.57146566,67.1430611 L4.57146566,62.5715955 L45.7146566,62.5715955 L45.7191209,67.1430611 L4.57146566,67.1430611 Z" id="Shape"></path>
                </g>
            </g>
        </g>
    </g>
</svg>