<?xml version="1.0" encoding="UTF-8"?>
<svg width="100px" height="100px" viewBox="0 0 100 100" version="1.1" xmlns="http://www.w3.org/2000/svg" xmlns:xlink="http://www.w3.org/1999/xlink">
    <!-- Generator: Sketch 58 (84663) - https://sketch.com -->
    <title>tax</title>
    <desc>Created with Sketch.</desc>
    <g id="BDO-Home" stroke="none" stroke-width="1" fill="none" fill-rule="evenodd">
        <g transform="translate(-851.000000, -3669.000000)" fill="#C2CCC7" fill-rule="nonzero" id="Group-Copy-13">
            <g transform="translate(678.000000, 3654.000000)">
                <g id="tax" transform="translate(173.000000, 15.000000)">
                    <path d="M13.2478632,67.5213675 C12.0684763,67.5213675 11.1111111,68.4787325 11.1111111,69.6581197 C11.1111111,70.8375066 12.0684763,71.7948718 13.2478632,71.7948718 C14.4272502,71.7948718 15.3846154,70.8375066 15.3846154,69.6581197 C15.3846154,68.4787325 14.4272502,67.5213675 13.2478632,67.5213675 Z" id="Path"></path>
                    <path d="M13.2478632,79.4871795 C12.0684763,79.4871795 11.1111111,80.4445444 11.1111111,81.6239316 C11.1111111,82.8033186 12.0684763,83.7606838 13.2478632,83.7606838 C14.4272502,83.7606838 15.3846154,82.8033186 15.3846154,81.6239316 C15.3846154,80.4445444 14.4272502,79.4871795 13.2478632,79.4871795 Z" id="Path"></path>
                    <path d="M19.130353,59.0047656 C21.4266094,58.1981192 23.0769231,56.0269657 23.0769231,53.4795809 C23.0769231,50.2484162 20.4206963,47.6186116 17.157068,47.6186116 C16.068678,47.6186116 15.183783,46.7425187 15.183783,45.6649551 C15.183783,44.5881546 16.068678,43.7112986 17.157068,43.7112986 C17.8561968,43.7112986 18.5938662,44.0646358 19.2906824,44.7331524 C20.0746007,45.483326 21.3233201,45.4627212 22.0810308,44.6873638 C22.8387415,43.9120064 22.8187002,42.6749448 22.0355527,41.9247712 C21.0342648,40.9654954 20.0322059,40.4228978 19.130353,40.126797 L19.130353,37.8510924 C19.130353,36.7720023 18.2462288,35.8974359 17.157068,35.8974359 C16.0671363,35.8974359 15.183783,36.7720023 15.183783,37.8510924 L15.183783,40.1405335 C12.8867559,40.9471799 11.2372129,43.1183334 11.2372129,45.6657182 C11.2372129,48.8968827 13.8926687,51.5266876 17.157068,51.5266876 C18.2446873,51.5266876 19.130353,52.4027804 19.130353,53.480344 C19.130353,54.5571446 18.2446873,55.4340005 17.157068,55.4340005 C16.3137969,55.4340005 15.4034651,54.9089553 14.5948807,53.9557847 C13.8934397,53.1300595 12.6485743,53.0232189 11.8145529,53.7176828 C10.9805318,54.4121465 10.8726177,55.643866 11.5740588,56.4703543 C12.628533,57.7127575 13.8687736,58.5781664 15.183783,59.0146865 L15.183783,61.2942068 C15.183783,62.3732966 16.0671363,63.2478632 17.157068,63.2478632 C18.2462288,63.2478632 19.130353,62.3732966 19.130353,61.2942068 L19.130353,59.0047656 Z" id="Path"></path>
                    <path d="M85.6726782,66.8408724 C87.1253135,64.0637516 87.8897782,60.9738234 87.8897782,57.8121782 C87.8897782,49.2992347 82.3439765,41.7476025 74.2179163,39.1810546 L74.2179163,25.3908187 C74.2179163,24.8628606 74.0004786,24.3638945 73.6457121,24.0098879 L50.2089974,0.572209053 C49.8610973,0.224306008 49.3583209,0 48.8273155,0 L5.85936941,0 C2.62832386,0 0,2.62834642 0,5.8594197 L0,94.1405803 C0,97.3716534 2.62832386,100 5.85936941,100 L68.3585469,100 C71.5895922,100 74.2179163,97.3716534 74.2179163,94.1405803 L74.2179163,76.4448275 C75.3112074,76.1015023 76.3709293,75.6612827 77.3879265,75.1272212 L89.9970149,87.7364176 C92.286594,90.0260165 95.9921875,90.0267794 98.2825295,87.7364176 C100.572109,85.4468189 100.572872,81.7411937 98.2825295,79.4508319 L85.6726782,66.8408724 Z M50.7804387,6.66890459 L67.5498318,23.4376788 L50.7804387,23.4376788 L50.7804387,6.66890459 Z M70.31167,94.1405803 C70.31167,95.2170959 69.4358164,96.0937202 68.3585469,96.0937202 L5.85936941,96.0937202 C4.78209993,96.0937202 3.90624627,95.2170959 3.90624627,94.1405803 L3.90624627,5.8594197 C3.90624627,4.78214097 4.78209993,3.9062798 5.85936941,3.9062798 L46.8741924,3.9062798 L46.8741924,25.3908187 C46.8741924,26.4688603 47.749283,27.3439586 48.8273155,27.3439586 L70.31167,27.3439586 L70.31167,38.3799619 C69.664698,38.3158745 69.0123853,38.281542 68.3585469,38.281542 C57.5889038,38.281542 48.8273155,47.0424427 48.8273155,57.8121782 C48.8273155,68.5819136 57.5889038,77.3435772 68.3585469,77.3435772 C69.0123853,77.3435772 69.664698,77.3092445 70.31167,77.2443942 L70.31167,94.1405803 Z M68.3585469,73.4372974 C59.7434428,73.4372974 52.7335618,66.4281191 52.7335618,57.8121782 C52.7335618,49.1970001 59.7434428,42.187059 68.3585469,42.187059 C77.1193721,42.187059 83.983532,49.420543 83.983532,57.8121782 C83.983532,66.4250673 76.9728879,73.4372974 68.3585469,73.4372974 Z M95.5199284,84.9745557 C94.7577525,85.7359752 93.5240807,85.7390269 92.7588531,84.9745557 L80.7112878,72.9268868 C81.7191298,72.1006172 82.6461004,71.1728758 83.4723629,70.165788 L95.5199284,82.2134569 C96.28363,82.9771651 96.28363,84.2108475 95.5199284,84.9745557 L95.5199284,84.9745557 Z" id="Shape"></path>
                    <path d="M13.9194139,27.3504274 L37.3626374,27.3504274 C38.440934,27.3504274 39.3162393,26.4887987 39.3162393,25.4273504 L39.3162393,13.8888889 C39.3162393,12.8266893 38.440934,11.965812 37.3626374,11.965812 L13.9194139,11.965812 C12.840354,11.965812 11.965812,12.8266893 11.965812,13.8888889 L11.965812,25.4273504 C11.965812,26.48955 12.840354,27.3504274 13.9194139,27.3504274 Z M15.8730159,15.8119658 L35.4090354,15.8119658 L35.4090354,23.5042735 L15.8730159,23.5042735 L15.8730159,15.8119658 Z" id="Shape"></path>
                    <path d="M40.8118719,59.8290598 C41.8741232,59.8290598 42.7350427,58.8725293 42.7350427,57.6923077 C42.7350427,56.5129205 41.8741232,55.5555556 40.8118719,55.5555556 L29.2735982,55.5555556 C28.2113467,55.5555556 27.3504274,56.5129205 27.3504274,57.6923077 C27.3504274,58.8725293 28.2113467,59.8290598 29.2735982,59.8290598 L40.8118719,59.8290598 Z" id="Path"></path>
                    <path d="M27.3504274,45.7264957 C27.3504274,46.9067173 28.2113467,47.8632479 29.2735982,47.8632479 L40.8118719,47.8632479 C41.8741232,47.8632479 42.7350427,46.9067173 42.7350427,45.7264957 C42.7350427,44.5471085 41.8741232,43.5897436 40.8118719,43.5897436 L29.2735982,43.5897436 C28.2113467,43.5897436 27.3504274,44.5471085 27.3504274,45.7264957 Z" id="Path"></path>
                    <path d="M19.6581197,69.6581197 C19.6581197,70.8383412 20.5326861,71.7948718 21.6117761,71.7948718 L45.0548905,71.7948718 C46.1339804,71.7948718 47.008547,70.8383412 47.008547,69.6581197 C47.008547,68.4778979 46.1339804,67.5213675 45.0548905,67.5213675 L21.6117761,67.5213675 C20.5326861,67.5213675 19.6581197,68.4778979 19.6581197,69.6581197 Z" id="Path"></path>
                    <path d="M57.0085086,79.4871795 L21.62397,79.4871795 C20.5381448,79.4871795 19.6581197,80.4437098 19.6581197,81.6239316 C19.6581197,82.8041532 20.5381448,83.7606838 21.62397,83.7606838 L57.0085086,83.7606838 C58.0943337,83.7606838 58.974359,82.8041532 58.974359,81.6239316 C58.974359,80.4437098 58.0943337,79.4871795 57.0085086,79.4871795 Z" id="Path"></path>
                </g>
            </g>
        </g>
    </g>
</svg>